<svg width="16" height="16" viewBox="0 0 16 16" fill="none" xmlns="http://www.w3.org/2000/svg">
<path fill-rule="evenodd" clip-rule="evenodd" d="M16 3.5392C15.4114 3.80032 14.7786 3.97672 14.1147 4.05608C14.7923 3.64984 15.3129 3.00656 15.558 2.24C14.9237 2.61616 14.2212 2.88936 13.4734 3.03656C12.8747 2.39856 12.0216 2 11.0774 2C9.26464 2 7.7948 3.46968 7.7948 5.28248C7.7948 5.53976 7.82384 5.79032 7.87984 6.03056C5.15168 5.89368 2.73288 4.5868 1.11392 2.6008C0.83136 3.0856 0.66944 3.64944 0.66944 4.25104C0.66944 5.38992 1.24896 6.39464 2.12976 6.98336C1.59168 6.96624 1.08552 6.81864 0.64296 6.57272C0.64264 6.58648 0.64264 6.60016 0.64264 6.61408C0.64264 8.20448 1.77416 9.53112 3.27584 9.8328C3.0004 9.90776 2.7104 9.94792 2.41104 9.94792C2.19952 9.94792 1.99384 9.92736 1.79336 9.88904C2.21112 11.1931 3.42336 12.1422 4.85984 12.1686C3.7364 13.0491 2.32104 13.5739 0.78304 13.5739C0.51808 13.5739 0.2568 13.5583 0 13.5279C1.45272 14.4594 3.17816 15.0029 5.03192 15.0029C11.0698 15.0029 14.3716 10.0009 14.3716 5.66312C14.3716 5.5208 14.3683 5.3792 14.362 5.2384C15.0034 4.7756 15.5599 4.19752 16 3.5392Z" fill="white"/>
</svg>
