<svg width="109" height="109" viewBox="0 0 109 109" fill="none" xmlns="http://www.w3.org/2000/svg">
<path d="M0.565876 45.7307L1.7605 45.8565L1.38325 49.4089L1.98057 49.4718L2.35782 45.9822L3.55244 46.108L3.17519 49.5975L3.83538 49.6604L4.21263 46.0451L5.4387 46.1708L4.87282 51.641L0 51.138L0.565876 45.7307Z" fill="white"/>
<path d="M1.41462 41.6755L4.80988 42.5243L5.62725 39.2234L6.97907 39.5692L5.69013 44.6935L0.911621 43.4989L1.41462 41.6755Z" fill="white"/>
<path d="M6.50747 28.283L7.57635 28.8174L6.06735 31.9612L6.63322 32.2127L8.11079 29.1632L9.17967 29.6976L7.7021 32.7471L9.39973 33.5645L8.58235 35.2307L4.14966 33.0929L6.50747 28.283Z" fill="white"/>
<path d="M7.57642 26.3337L8.64529 24.7933L10.4687 26.0508C10.5944 26.1451 10.7202 26.208 10.8774 26.2709C11.0345 26.3337 11.1917 26.3337 11.3489 26.3337C11.5061 26.3337 11.6947 26.2394 11.8519 26.1451C12.0405 26.0194 12.1977 25.8307 12.3864 25.5792C12.5435 25.3277 12.6693 25.1077 12.7007 24.8876C12.7322 24.6675 12.7322 24.5104 12.7007 24.3217C12.6693 24.1645 12.575 24.0074 12.4807 23.8816C12.3864 23.7559 12.2606 23.6615 12.1349 23.5672L10.3115 22.3097L11.3804 20.7693L13.298 22.0897C13.4238 22.184 13.5495 22.2783 13.7067 22.4355C13.8639 22.5927 13.9897 22.7184 14.084 22.907C14.2097 23.0957 14.3041 23.2843 14.3669 23.5358C14.4612 23.7559 14.4612 24.0074 14.4612 24.2903C14.4612 24.5732 14.3669 24.8876 14.2412 25.202C14.1154 25.5164 13.9268 25.8936 13.6753 26.2709L13.5181 26.4909C13.2352 26.8682 12.9837 27.1825 12.7007 27.434C12.4178 27.6855 12.1663 27.8427 11.9148 27.9685C11.6633 28.0942 11.4118 28.1571 11.1917 28.1571C10.9717 28.1571 10.7202 28.1571 10.5315 28.1257C10.3115 28.0942 10.1229 28.0314 9.96567 27.937C9.77704 27.8427 9.65129 27.7799 9.49411 27.6855L7.57642 26.3337Z" fill="white"/>
<path d="M15.2159 18.5058L13.7697 20.0463L12.7952 19.1346L16.9764 14.7019L17.9509 15.6136L16.4734 17.154L19.0512 19.6062L17.7623 20.958L15.2159 18.5058Z" fill="white"/>
<path d="M18.5798 13.2245L20.0888 12.0927L21.4092 13.8532C21.5035 13.979 21.5978 14.0733 21.7236 14.1676C21.8493 14.2619 22.0065 14.3248 22.1637 14.3562C22.3209 14.3877 22.5095 14.3877 22.7296 14.3248C22.9182 14.2619 23.1697 14.1362 23.4212 13.9475C23.6727 13.7589 23.8299 13.5703 23.9557 13.3817C24.05 13.193 24.1128 13.0358 24.1443 12.8472C24.1757 12.6586 24.1443 12.5328 24.0814 12.3756C24.0185 12.2185 23.9557 12.0927 23.8613 11.967L22.541 10.2065L24.0185 9.07471L25.4332 10.9295C25.5275 11.0553 25.6218 11.2125 25.7162 11.3696C25.8105 11.5268 25.8733 11.7155 25.9362 11.9355C25.9991 12.1556 25.9991 12.3756 25.9991 12.5957C25.9991 12.8472 25.9362 13.0673 25.8419 13.3502C25.7476 13.6017 25.5904 13.8847 25.3703 14.1676C25.1503 14.4505 24.8673 14.7335 24.4901 15.0164L24.2072 15.2365C23.8299 15.5194 23.4841 15.7395 23.1383 15.8967C22.8239 16.0538 22.5095 16.1167 22.2266 16.1482C21.9437 16.1796 21.6922 16.1796 21.4721 16.1167C21.252 16.0538 21.032 15.991 20.8433 15.8652C20.6547 15.7709 20.4975 15.6452 20.3403 15.488C20.2146 15.3622 20.0888 15.2365 19.9945 15.1107L18.5798 13.2245Z" fill="white"/>
<path d="M29.8657 11.3696L28.1995 12.2498L25.9045 7.91145L29.8657 5.80513C30.4944 5.45932 31.0289 5.33357 31.4061 5.36501C31.7834 5.39644 32.0977 5.61651 32.2864 5.96232L32.3178 6.02519C32.4121 6.18238 32.4435 6.33957 32.4435 6.49676C32.4435 6.65395 32.4121 6.7797 32.3807 6.90545C32.3178 7.0312 32.2549 7.12551 32.192 7.25126C32.1292 7.34557 32.0349 7.43988 31.972 7.50276C32.2864 7.40845 32.5379 7.43988 32.8208 7.50276C33.0723 7.59707 33.2924 7.7857 33.4181 8.0372L33.7639 8.66595C33.8582 8.82314 33.9211 8.91745 33.9526 8.98032C34.0154 9.0432 34.0469 9.07464 34.0783 9.10608V9.13751L32.3807 10.0492C32.3492 10.0492 32.3178 10.0178 32.2864 9.98633C32.2549 9.95489 32.2235 9.92345 32.192 9.86058L31.9405 9.35758C31.8148 9.10607 31.6576 8.94889 31.4375 8.91745C31.2489 8.85457 30.966 8.91745 30.6516 9.10608L29.0797 9.95489L29.8657 11.3696ZM28.5139 8.82314L30.4001 7.81714C30.5887 7.72282 30.683 7.62851 30.7459 7.50276C30.7774 7.37701 30.7774 7.2827 30.7145 7.18838C30.6516 7.09407 30.5887 7.0312 30.463 6.99976C30.3372 6.96832 30.2115 6.99976 30.0229 7.09407L28.1366 8.10007L28.5139 8.82314Z" fill="white"/>
<path d="M37.2534 2.69272C37.7564 2.53553 38.1965 2.40978 38.5738 2.37834C38.951 2.3469 39.2968 2.31547 39.5798 2.37834C39.8627 2.40978 40.1142 2.50409 40.3343 2.5984C40.5543 2.69272 40.7115 2.81847 40.8687 2.97566C40.9945 3.13284 41.1202 3.25859 41.2145 3.44722C41.3088 3.60441 41.3717 3.76159 41.4031 3.91878L41.466 4.10741C41.5289 4.26459 41.5603 4.42178 41.5918 4.61041C41.6232 4.79903 41.6232 4.98766 41.5918 5.17628C41.5603 5.36491 41.4975 5.58497 41.4031 5.80503C41.3088 6.0251 41.1516 6.21372 40.9316 6.43379C40.7115 6.65385 40.46 6.84247 40.1142 7.0311C39.7684 7.21972 39.3597 7.40835 38.8567 7.56554L38.5738 7.65985C38.0708 7.81704 37.6306 7.94279 37.2219 7.97423C36.8447 8.00566 36.4989 8.00566 36.1845 7.97423C35.9016 7.94279 35.6501 7.84848 35.43 7.75416C35.2099 7.62841 35.0528 7.50266 34.8956 7.37691C34.7698 7.21972 34.6441 7.06254 34.5498 6.90535C34.4554 6.74816 34.3926 6.59097 34.3611 6.43379L34.2983 6.24516C34.2354 6.08797 34.2039 5.93078 34.1725 5.74216C34.1411 5.55353 34.1411 5.36491 34.1725 5.17628C34.2039 4.98766 34.2668 4.7676 34.3611 4.54753C34.4554 4.32747 34.6126 4.13884 34.8327 3.91878C35.0528 3.69872 35.3043 3.51009 35.6501 3.32147C35.9959 3.13284 36.4046 2.94422 36.9076 2.78703L37.2534 2.69272ZM39.5798 4.5161C39.5483 4.39035 39.4855 4.26459 39.3911 4.17028C39.2968 4.04453 39.1711 3.95022 39.0139 3.88734C38.8567 3.82447 38.6366 3.79303 38.4166 3.79303C38.1965 3.79303 37.8821 3.85591 37.5363 3.98166C37.1905 4.10741 36.9076 4.23316 36.7189 4.35891C36.5303 4.5161 36.3731 4.64185 36.2788 4.79903C36.1845 4.95622 36.1531 5.08197 36.1531 5.23916C36.1531 5.39635 36.1845 5.5221 36.2159 5.64785L36.2474 5.71072C36.2788 5.83647 36.3417 5.96222 36.436 6.08797C36.5303 6.21372 36.6561 6.30804 36.8133 6.37091C36.9704 6.43379 37.1905 6.46522 37.4106 6.49666C37.6621 6.49666 37.945 6.43379 38.2908 6.33947C38.6366 6.21372 38.9196 6.08797 39.1082 5.96222C39.2968 5.80503 39.454 5.67928 39.5483 5.5221C39.6426 5.36491 39.6741 5.20772 39.6741 5.08197C39.6741 4.92478 39.6741 4.79903 39.6112 4.67328L39.5798 4.5161Z" fill="white"/>
<path d="M51.6834 0.11499L51.8092 1.30962L48.2253 1.65543L48.2882 2.25274L51.7777 1.93837L51.9035 3.13299L48.4139 3.44737L48.4768 4.10756L52.0921 3.76175L52.2179 4.98781L46.7477 5.49081L46.3076 0.586553L51.6834 0.11499Z" fill="white"/>
<path d="M55.2672 5.01922C54.9528 4.95635 54.6699 4.86203 54.4498 4.73628C54.2298 4.61053 54.0726 4.51622 53.9468 4.39047C53.8211 4.26472 53.7268 4.13897 53.6639 3.98178C53.601 3.85603 53.5696 3.73028 53.5381 3.57309C53.5381 3.44734 53.5067 3.32159 53.5381 3.22728V3.1644L55.5816 3.29015C55.5816 3.35303 55.5816 3.4159 55.613 3.51022C55.6445 3.60453 55.6759 3.66741 55.7702 3.73028C55.8645 3.79316 55.9588 3.85603 56.116 3.91891C56.2732 3.98178 56.4933 4.01322 56.7448 4.04466H56.8076C57.0591 4.07609 57.2792 4.07609 57.4364 4.04466C57.5936 4.01322 57.7193 4.01322 57.8136 3.95034C57.908 3.91891 57.9708 3.85603 58.0023 3.82459C58.0337 3.76172 58.0337 3.69884 58.0651 3.66741C58.0651 3.60453 58.0651 3.54166 58.0337 3.51022C58.0023 3.44734 57.9708 3.4159 57.8765 3.35303C57.8136 3.32159 57.6879 3.25872 57.5307 3.22728C57.3735 3.19584 57.1849 3.1644 56.902 3.13297L55.9903 3.03865C55.5187 3.00722 55.1415 2.9129 54.8271 2.81859C54.5127 2.72428 54.2926 2.59853 54.104 2.44134C53.9154 2.28415 53.8211 2.12697 53.7582 1.96978C53.6953 1.78115 53.6639 1.62396 53.6953 1.4039V1.34103C53.6953 1.1524 53.7582 0.963776 53.8525 0.775151C53.9468 0.586526 54.104 0.460776 54.3241 0.335025C54.5441 0.209275 54.8271 0.114963 55.2043 0.0520874C55.5816 -0.0107877 56.0531 -0.0107877 56.619 0.0206499L57.2163 0.0520874C57.8136 0.083525 58.3166 0.177838 58.6939 0.27215C59.0711 0.3979 59.3855 0.523651 59.5742 0.680838C59.7942 0.838026 59.92 1.02665 59.9828 1.21528C60.0457 1.4039 60.0772 1.59253 60.0772 1.78115V1.84403L58.0337 1.71828C58.0337 1.68684 58.0337 1.62396 58.0023 1.56109C57.9708 1.49821 57.9394 1.43534 57.8451 1.37246C57.7822 1.30959 57.6565 1.24671 57.4993 1.21528C57.3421 1.1524 57.122 1.12096 56.8705 1.12096H56.8076C56.5561 1.12096 56.3675 1.08953 56.2103 1.12096C56.0531 1.12096 55.9588 1.1524 55.8645 1.18384C55.8016 1.21528 55.7388 1.24671 55.7073 1.27815C55.6759 1.30959 55.6759 1.37246 55.6759 1.4039C55.6759 1.46678 55.6759 1.49821 55.7073 1.52965C55.7388 1.56109 55.7702 1.62396 55.8645 1.6554C55.9274 1.68684 56.0531 1.71828 56.1789 1.74972C56.3046 1.78115 56.4933 1.81259 56.7448 1.81259L57.625 1.87547C58.0966 1.9069 58.4738 1.96978 58.8197 2.06409C59.134 2.1584 59.417 2.25272 59.6056 2.37847C59.7942 2.50422 59.9514 2.6614 60.0457 2.85003C60.14 3.03865 60.1715 3.25872 60.14 3.51022V3.60453C60.14 3.82459 60.0772 4.01322 59.9828 4.20184C59.8885 4.39047 59.7313 4.57909 59.5113 4.70484C59.2912 4.86203 58.9768 4.95635 58.5681 5.01922C58.1595 5.0821 57.6565 5.11353 56.9963 5.05066L56.399 5.01922C55.9903 5.17641 55.5816 5.11353 55.2672 5.01922Z" fill="white"/>
<path d="M67.2449 4.92478L65.5159 1.24658L67.6851 1.87533L68.5967 3.88734L70.4516 2.66127L72.4321 3.22715L69.0683 5.45921L68.5653 7.21972L66.7734 6.71672L67.2449 4.92478Z" fill="white"/>
<path d="M76.9905 5.14488C77.4621 5.36495 77.8707 5.58501 78.1851 5.83651C78.4995 6.05657 78.751 6.30807 78.9396 6.52813C79.1283 6.7482 79.254 6.96826 79.3169 7.18832C79.3798 7.40839 79.4426 7.62845 79.4426 7.81707C79.4426 8.0057 79.4112 8.19432 79.3798 8.38295C79.3169 8.57157 79.2854 8.72876 79.2226 8.85451L79.1283 9.04314C79.0654 9.16889 78.9711 9.32608 78.8767 9.48326C78.7824 9.64045 78.6567 9.7662 78.4995 9.89195C78.3423 10.0177 78.1537 10.112 77.9336 10.2063C77.7136 10.3006 77.4621 10.3321 77.1477 10.3321C76.8647 10.3321 76.5189 10.3006 76.1417 10.2063C75.7644 10.112 75.3243 9.95483 74.8527 9.73476L74.5698 9.60901C74.0982 9.38895 73.6896 9.16889 73.3752 8.91739C73.0608 8.69733 72.8093 8.44582 72.6207 8.22576C72.4321 8.0057 72.3063 7.7542 72.2434 7.53414C72.1806 7.31407 72.1177 7.09401 72.1177 6.90539C72.1177 6.71676 72.1491 6.52813 72.1806 6.33951C72.2434 6.15088 72.2749 5.9937 72.3377 5.86795L72.4321 5.67932C72.4949 5.55357 72.5892 5.39638 72.6836 5.23919C72.7779 5.08201 72.9036 4.95626 73.0608 4.83051C73.218 4.70476 73.4066 4.61044 73.6267 4.51613C73.8467 4.42182 74.0982 4.39038 74.3812 4.39038C74.6641 4.39038 75.0099 4.42182 75.3872 4.51613C75.7644 4.61044 76.2046 4.76763 76.6761 4.98769L76.9905 5.14488ZM77.4306 8.06857C77.4935 7.94282 77.5249 7.81707 77.5249 7.65989C77.5249 7.5027 77.4935 7.37695 77.4306 7.21976C77.3677 7.06257 77.242 6.90539 77.0534 6.7482C76.8647 6.59101 76.6132 6.43382 76.2989 6.27663C75.9531 6.11945 75.6701 6.02513 75.4186 5.9937C75.1671 5.96226 74.9785 5.96226 74.8213 6.02513C74.6641 6.08801 74.5069 6.15088 74.4126 6.2452C74.3183 6.33951 74.224 6.46526 74.1611 6.59101L74.1297 6.65388C74.0668 6.77963 74.0354 6.90539 74.0354 7.06257C74.0354 7.21976 74.0354 7.37695 74.1297 7.53414C74.224 7.69132 74.3183 7.84851 74.5069 8.03714C74.6956 8.19432 74.9471 8.35151 75.2614 8.5087C75.5758 8.66589 75.8587 8.7602 76.1102 8.79164C76.3617 8.82308 76.5504 8.82308 76.739 8.7602C76.8962 8.69733 77.0534 8.63445 77.1477 8.5087C77.242 8.38295 77.3363 8.28864 77.3992 8.16289L77.4306 8.06857Z" fill="white"/>
<path d="M82.1462 7.84839L84.2525 9.35739L83.8753 12.4697L86.7361 11.1179L88.7481 12.564L85.8873 16.5566L84.3783 15.4877L86.1388 12.9727L82.9636 14.4503L82.1777 13.8844L82.5549 10.3948L80.763 12.8784L79.2854 11.8095L82.1462 7.84839Z" fill="white"/>
<path d="M93.1809 16.8084C93.5581 17.1856 93.8411 17.5314 94.0297 17.8772C94.2497 18.1916 94.3755 18.506 94.4698 18.7889C94.5641 19.0719 94.5956 19.3234 94.5956 19.5749C94.5956 19.7949 94.5641 20.015 94.4698 20.2036C94.4069 20.3922 94.3126 20.5494 94.1869 20.7066C94.0926 20.8638 93.9668 20.9895 93.8725 21.0839L93.7153 21.2096C93.5896 21.3039 93.4638 21.4297 93.3381 21.524C93.1809 21.6183 93.0237 21.7126 92.835 21.7755C92.6464 21.8384 92.4264 21.8698 92.2063 21.8698C91.9862 21.8698 91.7033 21.8069 91.4518 21.7126C91.1689 21.6183 90.8859 21.4611 90.5401 21.2411C90.2257 21.021 89.8799 20.7066 89.5027 20.3294L89.2826 20.1093C88.9054 19.732 88.6224 19.3862 88.4338 19.0404C88.2137 18.6946 88.088 18.4117 87.9937 18.1287C87.8994 17.8458 87.8679 17.5943 87.8679 17.3428C87.8679 17.1227 87.9308 16.9027 87.9937 16.714C88.0565 16.5254 88.1509 16.3682 88.2766 16.211C88.3709 16.0539 88.4967 15.9281 88.591 15.8338L88.7482 15.708C88.8739 15.6137 88.9997 15.488 89.1254 15.3937C89.2826 15.2994 89.4398 15.205 89.6284 15.1422C89.8171 15.0793 90.0371 15.0479 90.2572 15.0479C90.4772 15.0479 90.7602 15.1107 91.0117 15.205C91.2946 15.2994 91.5775 15.4565 91.8919 15.6766C92.2063 15.8967 92.5521 16.211 92.9294 16.5883L93.1809 16.8084ZM92.5207 19.7006C92.615 19.6063 92.7093 19.512 92.7722 19.3548C92.8351 19.229 92.8665 19.0719 92.8665 18.8832C92.8665 18.6946 92.8036 18.506 92.6779 18.2859C92.5521 18.0659 92.3949 17.8144 92.1434 17.5629C91.8919 17.3114 91.6404 17.0913 91.4518 16.997C91.2317 16.8712 91.0431 16.8084 90.8859 16.8084C90.7287 16.8084 90.5716 16.8084 90.4144 16.8712C90.2886 16.9341 90.1629 16.997 90.0685 17.0913L90.0057 17.1542C89.9114 17.2485 89.817 17.3428 89.7542 17.5C89.6913 17.6257 89.6599 17.7829 89.6599 17.9715C89.6599 18.1602 89.7227 18.3488 89.8171 18.5689C89.9114 18.7889 90.1 19.0404 90.3515 19.2919C90.603 19.5434 90.8231 19.732 91.0431 19.8578C91.2632 19.9835 91.4518 20.0464 91.6404 20.0464C91.8291 20.0464 91.9862 20.0464 92.112 19.9835C92.2377 19.9207 92.3635 19.8578 92.4578 19.7635L92.5207 19.7006Z" fill="white"/>
<path d="M96.9534 21.2095L99.5313 25.0449C99.7199 25.3278 99.8771 25.6107 99.94 25.8308C100.034 26.0509 100.066 26.2709 100.034 26.4281C100.034 26.5853 99.9714 26.7425 99.9085 26.8682C99.8142 26.994 99.7199 27.0883 99.6256 27.1826L99.5627 27.214C99.437 27.3084 99.3112 27.3398 99.1855 27.3712C99.0597 27.4027 98.934 27.3712 98.8396 27.3398C98.7139 27.3084 98.6196 27.2769 98.5253 27.214C98.431 27.1512 98.3681 27.0883 98.3052 27.0569C98.3366 27.1512 98.3681 27.2769 98.3995 27.4341C98.431 27.5599 98.431 27.717 98.431 27.8742C98.3995 28.0314 98.3681 28.1572 98.2738 28.3144C98.1795 28.4715 98.0537 28.5973 97.8965 28.723L97.8336 28.7545C97.6765 28.8488 97.5193 28.9431 97.3306 28.9745C97.142 29.006 96.9534 29.006 96.7648 28.9431C96.5761 28.8802 96.3561 28.7545 96.1675 28.5973C95.9474 28.4087 95.7273 28.1572 95.5073 27.8428L92.8979 24.0074L96.9534 21.2095ZM95.6016 24.3847L94.91 24.8562L96.1989 26.7425C96.2618 26.8368 96.3246 26.9311 96.3875 26.9625C96.4504 26.994 96.5133 27.0254 96.5761 27.0569C96.639 27.0883 96.6705 27.0569 96.7333 27.0569C96.7962 27.0569 96.8276 27.0254 96.8591 26.994H96.8905C96.922 26.9625 96.9848 26.9311 97.0163 26.8997C97.0477 26.8682 97.0791 26.8054 97.0791 26.7425C97.0791 26.6796 97.0791 26.6167 97.0477 26.5539C97.0163 26.491 96.9848 26.3967 96.922 26.3024L95.6016 24.3847ZM97.0791 23.3787L96.5133 23.7559L97.7393 25.5479C97.8336 25.705 97.9594 25.7994 98.0537 25.8308C98.148 25.8622 98.2423 25.8308 98.3052 25.7679C98.3995 25.705 98.431 25.6422 98.431 25.5479C98.431 25.4535 98.3995 25.3278 98.2738 25.1706L97.0791 23.3787Z" fill="white"/>
<path d="M98.1164 32.4641L97.2676 30.7979L101.637 28.5344L102.486 30.2006L98.1164 32.4641Z" fill="white"/>
<path d="M104.153 33.9733L100.883 35.2308L102.109 38.406L100.789 38.909L98.8711 33.9733L103.461 32.1814L104.153 33.9733Z" fill="white"/>
<path d="M107.265 44.5048L106.102 44.7878L105.284 41.2982L104.687 41.424L105.473 44.8507L104.31 45.1336L103.524 41.7069L102.864 41.8641L103.681 45.4165L102.487 45.668L101.229 40.3236L106.008 39.1919L107.265 44.5048Z" fill="white"/>
<path d="M104.561 52.0813L104.467 50.2264L105.756 50.1636L105.85 52.0184L104.561 52.0813Z" fill="white"/>
<path d="M107.422 62.8642L106.227 62.7384L106.636 59.186L106.039 59.1231L105.661 62.6127L104.467 62.4869L104.844 58.9974L104.184 58.9345L103.775 62.5498L102.549 62.424L103.146 56.9854L108.019 57.5198L107.422 62.8642Z" fill="white"/>
<path d="M106.542 66.8883L103.147 66.0081L102.298 69.309L100.946 68.9632L102.266 63.8389L107.013 65.0649L106.542 66.8883Z" fill="white"/>
<path d="M101.386 80.2807L100.317 79.7463L101.826 76.634L101.26 76.351L99.7826 79.4005L98.7137 78.866L100.191 75.8166L98.4937 74.9992L99.311 73.333L103.712 75.5022L101.386 80.2807Z" fill="white"/>
<path d="M100.317 82.2297L99.2483 83.7701L97.4563 82.5126C97.3306 82.4183 97.2048 82.3554 97.0476 82.2925C96.8904 82.2297 96.7333 82.2297 96.5761 82.2297C96.4189 82.2297 96.2303 82.324 96.0416 82.4183C95.853 82.5126 95.6958 82.7012 95.5072 82.9842C95.3186 83.2357 95.2243 83.4557 95.1928 83.6758C95.1614 83.8958 95.1614 84.053 95.1928 84.2417C95.2243 84.4303 95.3186 84.556 95.4129 84.6818C95.5072 84.8075 95.6329 84.9018 95.7587 84.9962L97.5506 86.2537L96.4818 87.7941L94.5641 86.4423C94.4383 86.348 94.3126 86.2537 94.1554 86.0965C94.0296 85.9707 93.9039 85.8135 93.7781 85.6249C93.6524 85.4363 93.5895 85.2477 93.5266 84.9962C93.4638 84.7761 93.4323 84.5246 93.4637 84.2417C93.4952 83.9587 93.5581 83.6443 93.6838 83.33C93.8096 83.0156 93.9982 82.6383 94.2811 82.2611L94.4383 82.041C94.7213 81.6638 94.9728 81.3494 95.2557 81.0979C95.5386 80.8464 95.7901 80.6892 96.0416 80.5635C96.2931 80.4377 96.5446 80.3748 96.7647 80.3748C96.9848 80.3434 97.2363 80.3748 97.4249 80.4063C97.6449 80.4377 97.8336 80.5006 97.9908 80.5949C98.1794 80.6892 98.3051 80.7835 98.4309 80.8464L100.317 82.2297Z" fill="white"/>
<path d="M92.6464 89.9947L94.1239 88.4543L95.0985 89.3974L90.8544 93.7987L89.8799 92.8556L91.3574 91.3151L88.7795 88.8315L90.0685 87.4797L92.6464 89.9947Z" fill="white"/>
<path d="M89.2512 95.2764L87.7422 96.4081L86.4219 94.6476C86.3275 94.5219 86.2332 94.4276 86.1075 94.3018C85.9817 94.2075 85.8245 94.1446 85.6674 94.1132C85.5102 94.0817 85.3215 94.0817 85.1015 94.1446C84.9129 94.2075 84.6614 94.3018 84.4098 94.4904C84.1583 94.6791 84.0012 94.8677 83.8754 95.0249C83.7811 95.2135 83.7182 95.3707 83.6868 95.5593C83.6868 95.7165 83.6868 95.8737 83.7497 96.0309C83.8125 96.1881 83.8754 96.3138 83.9697 96.4396L85.2901 98.2001L83.7811 99.3318L82.3664 97.477C82.2721 97.3512 82.1778 97.1941 82.0835 97.0369C81.9892 96.8797 81.9263 96.6596 81.8634 96.471C81.8005 96.2509 81.8005 96.0309 81.8005 95.8108C81.8005 95.5593 81.8634 95.3392 81.9577 95.0563C82.052 94.8048 82.2092 94.5219 82.4293 94.2389C82.6494 93.956 82.9323 93.6731 83.3095 93.4216L83.5296 93.2644C83.9069 92.9814 84.2527 92.7614 84.5985 92.6356C84.9129 92.5099 85.2272 92.4156 85.5102 92.3841C85.7931 92.3527 86.0446 92.3841 86.2647 92.4156C86.4847 92.447 86.7048 92.5413 86.8934 92.6671C87.082 92.7614 87.2392 92.8871 87.365 93.0443C87.4907 93.1701 87.6165 93.2958 87.7108 93.453L89.2512 95.2764Z" fill="white"/>
<path d="M77.9335 97.0682L79.5997 96.188L81.8632 100.526L77.9021 102.601C77.2733 102.947 76.7389 103.073 76.3616 103.041C75.953 103.01 75.67 102.79 75.4814 102.444L75.45 102.381C75.3556 102.224 75.3242 102.067 75.3242 101.91C75.3242 101.752 75.3556 101.627 75.3871 101.501C75.45 101.375 75.5128 101.281 75.5757 101.155C75.6386 101.061 75.7329 100.966 75.7958 100.904C75.4814 100.966 75.2299 100.966 74.947 100.904C74.6955 100.809 74.5068 100.621 74.3496 100.338L74.0038 99.709C73.9095 99.5518 73.8466 99.4575 73.8152 99.3946C73.7523 99.3317 73.7209 99.3003 73.6895 99.2689V99.2374L75.3871 98.3572C75.4185 98.3572 75.45 98.3886 75.4814 98.42C75.5128 98.4515 75.5443 98.4829 75.5757 98.5458L75.8272 99.0488C75.953 99.3003 76.1101 99.4575 76.3302 99.5204C76.5188 99.5832 76.8018 99.5204 77.1161 99.3632L78.7195 98.5458L77.9335 97.0682ZM79.2853 99.6147L77.3676 100.621C77.179 100.715 77.0847 100.809 77.0218 100.935C76.9904 101.061 76.9904 101.155 77.0533 101.249C77.1161 101.344 77.179 101.407 77.3048 101.438C77.4305 101.469 77.5563 101.438 77.7449 101.344L79.6626 100.338L79.2853 99.6147Z" fill="white"/>
<path d="M70.5144 105.714C70.0114 105.871 69.5712 105.965 69.194 106.028C68.8167 106.06 68.4709 106.06 68.188 106.028C67.905 105.997 67.6535 105.902 67.4335 105.808C67.2134 105.714 67.0562 105.557 66.9305 105.431C66.8047 105.274 66.679 105.148 66.5847 104.959C66.4904 104.802 66.4275 104.645 66.396 104.488L66.3332 104.299C66.3017 104.142 66.2389 103.985 66.2074 103.796C66.176 103.607 66.176 103.419 66.2074 103.23C66.2389 103.042 66.3017 102.822 66.396 102.601C66.4904 102.381 66.6475 102.193 66.8676 101.973C67.0877 101.753 67.3706 101.564 67.685 101.375C68.0308 101.187 68.4395 100.998 68.9425 100.841L69.2254 100.747C69.7284 100.589 70.1685 100.495 70.5772 100.432C70.9545 100.401 71.3003 100.401 71.6147 100.432C71.8976 100.464 72.1491 100.558 72.3692 100.652C72.5892 100.778 72.7464 100.904 72.9036 101.03C73.0294 101.187 73.1551 101.344 73.2494 101.501C73.3437 101.658 73.4066 101.816 73.4381 101.973L73.5009 102.161C73.5638 102.319 73.5952 102.476 73.6267 102.664C73.6581 102.853 73.6581 103.042 73.6267 103.23C73.5952 103.419 73.5324 103.639 73.4381 103.828C73.3437 104.048 73.1866 104.236 72.9665 104.456C72.7464 104.676 72.4949 104.865 72.1491 105.054C71.8033 105.242 71.3946 105.431 70.8916 105.588L70.5144 105.714ZM68.188 103.859C68.2194 103.985 68.2823 104.11 68.3766 104.236C68.4709 104.362 68.5967 104.456 68.7539 104.519C68.911 104.582 69.1311 104.613 69.3512 104.613C69.6027 104.613 69.8856 104.551 70.2314 104.456C70.5772 104.331 70.8602 104.205 71.0488 104.079C71.2374 103.922 71.3946 103.796 71.4889 103.639C71.5832 103.482 71.6147 103.356 71.6147 103.199C71.6147 103.042 71.6147 102.916 71.5518 102.79L71.5204 102.727C71.4889 102.601 71.426 102.476 71.3317 102.35C71.2374 102.224 71.1117 102.13 70.9545 102.067C70.7973 102.004 70.5772 101.941 70.3572 101.941C70.1057 101.941 69.8227 102.004 69.4769 102.098C69.1311 102.224 68.8482 102.35 68.6595 102.476C68.4709 102.633 68.3137 102.759 68.2194 102.916C68.1251 103.073 68.0937 103.23 68.0937 103.356C68.0937 103.513 68.0937 103.639 68.1565 103.765L68.188 103.859Z" fill="white"/>
<path d="M56.0847 108.229L55.9903 107.034L59.5742 106.72L59.5114 106.122L56.0218 106.437L55.9275 105.242L59.417 104.928L59.3542 104.268L55.7388 104.582L55.6445 103.356L61.1147 102.884L61.5548 107.789L56.0847 108.229Z" fill="white"/>
<path d="M52.5006 103.262C52.815 103.324 53.0979 103.419 53.318 103.545C53.538 103.639 53.6952 103.765 53.821 103.89C53.9467 104.016 54.041 104.142 54.1039 104.299C54.1668 104.425 54.1982 104.55 54.2296 104.708C54.2296 104.833 54.2611 104.959 54.2296 105.054V105.116L52.1862 104.991C52.1862 104.928 52.1862 104.865 52.1548 104.771C52.1233 104.676 52.0919 104.613 51.9976 104.55C51.9033 104.488 51.809 104.425 51.6518 104.362C51.4946 104.299 51.2745 104.268 51.023 104.236H50.9601C50.7086 104.205 50.4886 104.205 50.3314 104.236C50.1742 104.268 50.0484 104.268 49.9541 104.33C49.8598 104.362 49.7969 104.425 49.7655 104.456C49.7341 104.519 49.7341 104.582 49.7026 104.613C49.7026 104.676 49.7026 104.739 49.7341 104.771C49.7655 104.833 49.7969 104.865 49.8913 104.928C49.9541 104.959 50.0799 105.022 50.2371 105.054C50.3943 105.085 50.5829 105.116 50.8658 105.148L51.7775 105.242C52.2491 105.274 52.6263 105.368 52.9407 105.462C53.2551 105.557 53.4751 105.682 53.6638 105.839C53.8524 105.997 53.9467 106.154 54.0096 106.311C54.0725 106.5 54.1039 106.657 54.0725 106.877V106.94C54.0725 107.128 54.0096 107.317 53.9153 107.506C53.821 107.694 53.6638 107.82 53.4437 107.946C53.2236 108.072 52.9407 108.166 52.5634 108.229C52.1862 108.292 51.7146 108.292 51.1488 108.26L50.5514 108.229C49.9541 108.197 49.4511 108.103 49.0739 108.009C48.6966 107.883 48.3823 107.757 48.1936 107.6C47.9736 107.443 47.8478 107.254 47.7849 107.066C47.7221 106.877 47.6906 106.688 47.6906 106.5V106.437L49.7341 106.563C49.7341 106.594 49.7341 106.657 49.7655 106.72C49.7969 106.783 49.8284 106.845 49.9227 106.908C49.9856 106.971 50.1113 107.034 50.2685 107.066C50.4257 107.128 50.6458 107.16 50.8973 107.16H50.9601C51.2116 107.16 51.4003 107.191 51.5574 107.16C51.7146 107.16 51.809 107.128 51.9033 107.097C51.9661 107.066 52.029 107.034 52.0605 107.003C52.0919 106.971 52.0919 106.908 52.0919 106.877C52.0919 106.814 52.0919 106.783 52.0605 106.751C52.029 106.72 51.9976 106.657 51.9033 106.625C51.8404 106.594 51.7146 106.563 51.5889 106.531C51.4631 106.5 51.2745 106.468 51.023 106.468L50.1428 106.405C49.6712 106.374 49.2939 106.311 48.9481 106.217C48.6338 106.122 48.3508 106.028 48.1622 105.902C47.9736 105.777 47.8164 105.619 47.7221 105.431C47.6278 105.242 47.5963 105.022 47.6278 104.771V104.676C47.6278 104.456 47.6906 104.268 47.7849 104.079C47.8793 103.89 48.0364 103.702 48.2565 103.576C48.4766 103.419 48.7909 103.324 49.1996 103.262C49.6083 103.199 50.1113 103.167 50.7715 103.23L51.3688 103.262C51.7775 103.136 52.1548 103.199 52.5006 103.262Z" fill="white"/>
<path d="M40.5543 103.324L42.2834 107.003L40.1142 106.374L39.2025 104.33L37.3163 105.557L35.3357 104.991L38.7309 102.79L39.2339 101.03L41.0259 101.564L40.5543 103.324Z" fill="white"/>
<path d="M30.7773 103.073C30.3058 102.853 29.8971 102.633 29.5827 102.381C29.2683 102.161 29.0168 101.91 28.8282 101.69C28.6396 101.47 28.5138 101.25 28.4509 100.998C28.3881 100.778 28.3252 100.558 28.3252 100.369C28.3252 100.181 28.3566 99.992 28.3881 99.8034C28.4509 99.6148 28.4824 99.4576 28.5453 99.3318L28.6396 99.1432C28.7024 99.0174 28.7968 98.8603 28.8911 98.7031C28.9854 98.5459 29.1111 98.4201 29.2998 98.2944C29.4569 98.1686 29.6456 98.0743 29.8656 97.98C30.0857 97.8857 30.3372 97.8542 30.6516 97.8542C30.9345 97.8542 31.2803 97.8857 31.6576 97.98C32.0348 98.0743 32.475 98.2315 32.9465 98.4516L33.2295 98.5773C33.701 98.7974 34.1097 99.0489 34.4241 99.2689C34.7385 99.489 34.99 99.7405 35.1786 99.9606C35.3672 100.181 35.493 100.432 35.5558 100.652C35.6187 100.872 35.6816 101.092 35.6816 101.281C35.6816 101.47 35.6501 101.658 35.6187 101.847C35.5558 102.035 35.5244 102.193 35.4615 102.318L35.3672 102.507C35.3043 102.633 35.21 102.79 35.1157 102.947C35.0214 103.104 34.8956 103.23 34.7385 103.356C34.5813 103.482 34.3926 103.576 34.1726 103.67C33.9525 103.765 33.701 103.796 33.4181 103.796C33.1351 103.796 32.7893 103.765 32.4121 103.67C32.0348 103.576 31.5947 103.419 31.1231 103.199L30.7773 103.073ZM30.3686 100.118C30.3058 100.244 30.2743 100.369 30.2743 100.526C30.2743 100.684 30.3058 100.809 30.3686 100.998C30.4315 101.155 30.5573 101.312 30.7459 101.47C30.9345 101.627 31.186 101.784 31.5004 101.941C31.8462 102.098 32.1291 102.193 32.3806 102.224C32.6321 102.256 32.8208 102.256 32.978 102.193C33.1351 102.161 33.2923 102.067 33.3866 101.973C33.481 101.878 33.5753 101.753 33.6381 101.627L33.6696 101.564C33.7325 101.438 33.7639 101.312 33.7639 101.155C33.7953 100.998 33.7639 100.841 33.6696 100.684C33.6067 100.526 33.481 100.338 33.2923 100.181C33.1037 100.023 32.8522 99.8348 32.5378 99.7091C32.2235 99.5519 31.9405 99.4576 31.689 99.4261C31.4375 99.3947 31.2489 99.3947 31.0603 99.4576C30.9031 99.5204 30.7459 99.5833 30.6516 99.6776C30.5573 99.7719 30.4629 99.8977 30.4001 100.023L30.3686 100.118Z" fill="white"/>
<path d="M25.6215 100.338L23.5467 98.8291L23.9553 95.7168L21.0945 97.0686L19.0825 95.6224L21.9748 91.6299L23.4838 92.7302L21.6918 95.2138L24.8985 93.7362L25.6844 94.3021L25.2757 97.7916L27.0677 95.3081L28.5452 96.3769L25.6215 100.338Z" fill="white"/>
<path d="M14.6498 91.3154C14.2725 90.9381 13.9896 90.5608 13.801 90.2465C13.5809 89.9007 13.4552 89.6177 13.3609 89.3348C13.2665 89.0518 13.2351 88.8003 13.2351 88.5488C13.2351 88.2973 13.298 88.1087 13.3609 87.9201C13.4237 87.7315 13.518 87.5743 13.6438 87.4171C13.7381 87.2599 13.8639 87.1342 13.9896 87.0398L14.1468 86.9141C14.2725 86.8198 14.3983 86.694 14.524 86.5997C14.6812 86.5054 14.8384 86.4111 15.027 86.3482C15.2157 86.2853 15.4357 86.2539 15.6558 86.2539C15.8759 86.2539 16.1588 86.3168 16.4103 86.4111C16.6932 86.5054 16.9762 86.6626 17.322 86.9141C17.6364 87.1342 17.9822 87.4485 18.3594 87.8258L18.5795 88.0458C18.9567 88.4231 19.2397 88.8003 19.4283 89.1147C19.6484 89.4605 19.7741 89.7435 19.8684 90.0264C19.9627 90.3093 19.9942 90.5609 19.9942 90.8124C19.9942 91.0324 19.9313 91.2525 19.8684 91.4411C19.8056 91.6297 19.7112 91.7869 19.5855 91.9441C19.4597 92.1013 19.3654 92.227 19.2397 92.3213L19.0825 92.4471C18.9567 92.5414 18.831 92.6672 18.7052 92.7615C18.5481 92.8558 18.3909 92.9501 18.2022 93.013C18.0136 93.0759 17.7936 93.1073 17.5735 93.1073C17.3534 93.1073 17.0705 93.0444 16.819 92.9501C16.5361 92.8558 16.2531 92.6986 15.9387 92.4471C15.6244 92.227 15.2785 91.9127 14.9013 91.5354L14.6498 91.3154ZM15.3414 88.4231C15.2471 88.5174 15.1528 88.6117 15.0899 88.7689C15.027 88.8947 14.9956 89.0518 14.9956 89.2405C14.9956 89.4291 15.0585 89.6177 15.1528 89.8378C15.2471 90.0578 15.4357 90.3093 15.6872 90.5608C15.9387 90.8438 16.1902 91.0324 16.3789 91.1267C16.5989 91.2525 16.7876 91.3154 16.9447 91.3154C17.1019 91.3468 17.2591 91.3153 17.4163 91.2525C17.5421 91.1896 17.6678 91.1267 17.7621 91.0324L17.825 90.9695C17.9193 90.8752 18.0136 90.7809 18.0765 90.6237C18.1394 90.498 18.1708 90.3408 18.1708 90.1522C18.1708 89.9635 18.1079 89.7749 18.0136 89.5548C17.9193 89.3348 17.7307 89.0833 17.4792 88.8318C17.2277 88.5803 17.0076 88.3917 16.7876 88.2659C16.5675 88.1402 16.3789 88.0773 16.1902 88.0773C16.0016 88.0773 15.8444 88.0773 15.7187 88.1402C15.5929 88.203 15.4672 88.2659 15.3729 88.3602L15.3414 88.4231Z" fill="white"/>
<path d="M10.9088 86.914L8.33094 83.0786C8.14232 82.7956 7.98513 82.5127 7.92226 82.2926C7.85938 82.0726 7.7965 81.8525 7.82794 81.6953C7.82794 81.5381 7.89082 81.3809 7.95369 81.2552C8.048 81.1294 8.14232 81.0351 8.23663 80.9723L8.29951 80.9408C8.42526 80.8465 8.55101 80.8151 8.67676 80.7836C8.80251 80.7836 8.92826 80.7836 9.02257 80.8151C9.14832 80.8465 9.24263 80.8779 9.33694 80.9408C9.43126 81.0037 9.49413 81.0666 9.55701 81.098C9.52557 81.0037 9.49413 80.8779 9.46269 80.7208C9.43126 80.595 9.43126 80.4378 9.43126 80.2806C9.43126 80.1234 9.49413 79.9977 9.58844 79.8405C9.68276 79.6833 9.80851 79.5576 9.9657 79.4318L10.0286 79.4004C10.1858 79.3061 10.3744 79.2118 10.5316 79.1803C10.7202 79.1489 10.9088 79.1489 11.0974 79.2118C11.2861 79.2746 11.5061 79.4004 11.6948 79.5576C11.9148 79.7462 12.1349 79.9977 12.3549 80.3121L14.9328 84.1789L10.9088 86.914ZM10.7831 84.7133L11.3489 84.3361L10.1229 82.5127C10.0286 82.3555 9.90282 82.2612 9.80851 82.2298C9.7142 82.1983 9.61988 82.2298 9.55701 82.2612C9.46269 82.3241 9.43126 82.3869 9.43126 82.4813C9.43126 82.5756 9.46269 82.7013 9.55701 82.8585L10.7831 84.7133ZM12.2921 83.7388L12.9837 83.2672L11.6948 81.3495C11.6319 81.2552 11.569 81.1609 11.5061 81.1294C11.4433 81.0666 11.3804 81.0666 11.3175 81.0351C11.2546 81.0351 11.2232 81.0351 11.1603 81.0351C11.0974 81.0351 11.066 81.0666 11.0346 81.098H11.0031C10.9717 81.1294 10.9088 81.1609 10.8774 81.1923C10.8459 81.2238 10.8145 81.2866 10.8145 81.3495C10.8145 81.4124 10.8145 81.4753 10.8459 81.5381C10.8774 81.601 10.9088 81.6953 10.9717 81.7896L12.2921 83.7388Z" fill="white"/>
<path d="M9.80854 75.6282L10.6574 77.2944L6.28753 79.5264L5.43872 77.8602L9.80854 75.6282Z" fill="white"/>
<path d="M3.77246 74.1188L7.04197 72.8613L5.8159 69.6861L7.13628 69.1831L9.02253 74.1188L4.46409 75.8479L3.77246 74.1188Z" fill="white"/>
<path d="M0.723145 63.556L1.88633 63.273L2.67227 66.7626L3.26959 66.6368L2.51508 63.2101L3.67827 62.9272L4.46421 66.3539L5.1244 66.1967L4.30702 62.6443L5.50165 62.3613L6.72772 67.7057L1.94921 68.806L0.723145 63.556Z" fill="white"/>
<path d="M3.45813 55.9795L3.55244 57.8343L2.2635 57.9286L2.16919 56.0738L3.45813 55.9795Z" fill="white"/>
</svg>
