<svg width="16" height="16" viewBox="0 0 16 16" fill="none" xmlns="http://www.w3.org/2000/svg">
<path fill-rule="evenodd" clip-rule="evenodd" d="M6.36717 9.72196V5.2313L10.6514 7.47663L6.36717 9.72196ZM15.9138 5.36716C15.8028 3.84373 15.5212 2.26977 13.5487 2.15606C9.93953 1.94798 6.06045 1.94798 2.45135 2.15606C0.478741 2.26977 0.197165 3.84373 0.0861974 5.36716C-0.0287325 6.94507 -0.0287325 8.34073 0.0861974 9.91864C0.197165 11.4421 0.478741 13.016 2.45135 13.1297C6.06045 13.3378 9.93953 13.3378 13.5487 13.1297C15.5212 13.016 15.8028 11.4421 15.9138 9.91864C16.0287 8.34073 16.0287 6.94507 15.9138 5.36716V5.36716Z" fill="white"/>
</svg>
