<svg width="112" height="13" viewBox="0 0 112 13" fill="none" xmlns="http://www.w3.org/2000/svg">
<path d="M14.7347 0.893629L9.46799 8.62911V12.4391H5.88218V8.62911L0.615509 0.893629H4.87367L7.67509 5.39637L10.4765 0.893629H14.7347ZM15.7432 2.16363C17.0879 1.12454 18.8808 0.66272 21.1219 0.66272C23.363 0.66272 25.268 1.12454 26.5006 2.16363C27.8453 3.20273 28.4056 4.70364 28.4056 6.78183C28.4056 8.86002 27.7332 10.3609 26.5006 11.4C25.1559 12.4391 23.363 12.9009 21.1219 12.9009C18.8808 12.9009 16.9758 12.4391 15.7432 11.4C14.3985 10.3609 13.8382 8.86002 13.8382 6.78183C13.8382 4.70364 14.3985 3.08727 15.7432 2.16363ZM18.5446 9.09093C19.1049 9.6682 20.0013 9.89911 21.1219 9.89911C22.2425 9.89911 23.1389 9.6682 23.6992 9.09093C24.2595 8.51365 24.5957 7.70547 24.5957 6.78183C24.5957 5.74273 24.2595 5.05001 23.6992 4.47273C23.1389 3.89546 22.2425 3.66455 21.1219 3.66455C20.0013 3.66455 19.1049 3.89546 18.5446 4.47273C17.9843 5.05001 17.6481 5.74273 17.6481 6.78183C17.7602 7.70547 17.9843 8.51365 18.5446 9.09093ZM51.041 0.893629V12.4391H47.4552V4.35728H47.3432L44.4297 12.4391H41.5162L38.6027 4.24182H38.4907V12.4391H35.0169V0.893629H40.7318L42.8609 7.59001H42.973L45.102 0.893629H51.041ZM54.2907 2.16363C55.6354 1.12454 57.4283 0.66272 59.6694 0.66272C61.9106 0.66272 63.8155 1.12454 65.0481 2.16363C66.3928 3.20273 66.9531 4.70364 66.9531 6.78183C66.9531 8.86002 66.2808 10.3609 65.0481 11.4C63.7035 12.4391 61.9106 12.9009 59.6694 12.9009C57.4283 12.9009 55.5233 12.4391 54.2907 11.4C52.946 10.3609 52.3857 8.86002 52.3857 6.78183C52.3857 4.70364 53.0581 3.08727 54.2907 2.16363ZM57.2042 9.09093C57.7645 9.6682 58.6609 9.89911 59.7815 9.89911C60.902 9.89911 61.7985 9.6682 62.3588 9.09093C62.9191 8.51365 63.2552 7.70547 63.2552 6.78183C63.2552 5.74273 62.9191 5.05001 62.3588 4.47273C61.7985 3.89546 60.902 3.66455 59.7815 3.66455C58.6609 3.66455 57.7645 3.89546 57.2042 4.47273C56.6439 5.05001 56.3077 5.74273 56.3077 6.78183C56.3077 7.70547 56.6439 8.51365 57.2042 9.09093ZM79.5035 6.32001C80.1758 6.43546 80.624 6.78183 80.9602 7.24365C81.2964 7.70547 81.5205 8.28274 81.5205 9.20638C81.5205 10.3609 81.1843 11.1691 80.624 11.7464C80.0637 12.3237 79.0552 12.5546 77.5985 12.5546H68.5219V1.00908H77.3744C79.9517 1.00908 81.1843 2.04818 81.1843 4.01091C81.0723 5.16546 80.512 5.85819 79.5035 6.32001ZM76.1418 5.51182C76.8141 5.51182 77.2623 5.16546 77.2623 4.58819C77.2623 4.01091 76.9262 3.66455 76.1418 3.66455H72.1077V5.51182H76.1418ZM76.3659 9.89911C76.8141 9.89911 77.1503 9.78366 77.2623 9.6682C77.4864 9.55275 77.5985 9.20638 77.5985 8.86001C77.5985 8.51365 77.4864 8.16729 77.2623 8.05183C77.0382 7.82092 76.8141 7.82092 76.3659 7.82092H72.1077V9.89911H76.3659ZM86.451 12.4391H82.8652V0.893629H86.451V12.4391ZM99.3375 12.4391H88.0198V0.893629H91.6056V9.55274H99.2254V12.4391H99.3375ZM104.156 3.78V5.39637H111.552V7.93638H104.156V9.78366H112V12.5546H100.57V1.00908H111.888V3.78H104.156Z" fill="white"/>
</svg>
