<svg width="275" height="205" viewBox="0 0 275 205" fill="none" xmlns="http://www.w3.org/2000/svg">
<path d="M194.329 41.3164C194.247 41.2837 194.165 41.251 194.083 41.2182C192.539 40.7934 191.013 41.0412 189.783 41.9777C185.832 44.9683 185.123 53.9112 184.727 63.7397C183.889 63.2156 182.937 62.7409 181.951 62.3482C175.053 59.5993 166.289 60.5771 160.058 64.7515C160.026 64.8335 159.943 64.8008 159.911 64.8829C155.304 68.5633 152.669 73.9807 150.576 79.2334C149.195 77.9223 147.979 77.1525 146.912 76.7271C146.337 76.498 145.812 76.3837 145.254 76.3515C145.171 76.3188 145.171 76.3188 145.057 76.3682C141.856 76.5194 139.12 80.2797 137.761 82.4962C134.978 87.0934 132.887 93.7736 134.076 98.9079C133.502 99.1546 132.895 99.4834 132.321 99.7302C126.367 102.493 120.265 105.388 114.443 108.774C103.296 107.375 93.8947 110.191 88.6024 116.547C85.3254 120.472 82.0694 127.449 85.5493 138.536L85.5987 138.651C89.2408 148.377 103.748 157.106 115.08 161.622C124.606 165.418 133.144 166.918 138.591 165.665C143.301 164.593 148.464 159.994 151.754 153.886C151.787 153.804 151.787 153.804 151.82 153.722C151.054 157.316 150.534 161.009 150.359 165.029C150.393 165.422 150.508 165.849 150.657 166.193C153.948 171.785 158.993 176.078 165.316 178.598C177.963 183.637 194.981 181.288 206.82 173.072C209.337 177.023 214.367 182.071 218.145 183.576C220.526 184.525 222.101 183.916 222.921 183.292C224.003 182.487 224.494 181.256 224.59 180.058C228.152 179.956 231.105 178.755 232.907 176.62C234.284 175.076 235.625 172.187 234.404 167.61C232.207 158.556 236.496 150.659 241.145 142.335C247.775 130.235 255.338 116.51 244.672 96.4722C245.367 89.2357 241.352 82.595 234.536 79.8789C231.826 78.799 228.936 78.4084 225.949 78.7399C224.237 75.3946 221.394 72.7398 218.109 71.4308C217.288 71.1035 216.352 70.8257 215.465 70.6626C213.228 67.203 209.941 64.4666 206.409 63.0595C204.521 62.3068 202.583 61.9152 200.646 61.9993C199.886 58.653 199.209 55.3395 198.613 52.0586C198.249 50.1065 197.885 48.1544 197.439 46.1696C197.406 46.2517 197.439 46.1696 197.389 46.0548C197.157 44.7261 196.645 42.4296 194.493 41.3819C194.411 41.3491 194.329 41.3164 194.329 41.3164Z" fill="white"/>
<path d="M188.647 73.0056C188.647 73.0056 177.542 55.7407 157.952 72.1863C154.792 77.4894 150.056 94.1483 150.056 94.1483L170.957 87.07C170.957 87.07 171.685 90.4983 171.901 92.1061C177.481 91.9522 191.001 88.1143 194.849 92.7862C197.677 96.1959 200.902 112.698 208.324 114.134C204.053 123.179 196.648 143.91 202.341 152.551C205.096 151.366 206.095 149.577 206.095 149.577C206.095 149.577 206.25 176.649 219.78 179.473C221.911 177.944 221.911 177.944 221.911 177.944C221.911 177.944 231.282 176.638 230.353 169.895C229.423 163.153 229.577 156.081 230.526 154.177C231.475 152.272 240.379 135.182 242.472 129.454C244.564 123.725 246.826 110.646 240.472 98.4128C239.606 90.0787 240.351 83.4328 224.215 82.6139C220.27 78.664 219 74.9245 211.76 74.227C209.818 70.5046 206.84 65.799 197.847 66.8754C198.939 73.2075 201.776 81.8511 201.776 81.8511C201.776 81.8511 191.846 82.6497 187.497 83.2944C188.258 76.3695 188.647 73.0056 188.647 73.0056Z" fill="#B290FA"/>
<path d="M186.611 83.607C186.611 83.607 189.585 52.2653 190.972 47.1118C192.278 42.4014 192.938 44.5665 194.047 50.6196C195.106 56.558 201.89 81.8017 201.89 81.8017C201.89 81.8017 190.204 82.4709 186.611 83.607Z" fill="#B1FF00"/>
<path d="M170.875 87.0374L115.22 112.793C115.22 112.793 143.934 116.437 149.773 135.217C156.042 134.291 159.515 130.349 162.441 132.561C158.614 142.164 154.168 165.5 154.168 165.5C154.168 165.5 166.275 183.355 194.56 174.463C204.435 170.219 208.319 165.966 208.319 165.966L205.982 151.054C205.982 151.054 199.433 162.234 200.44 143.709C202.386 128.317 207.929 113.692 207.929 113.692C207.929 113.692 198.42 110.092 198.419 98.8696C192.17 90.6727 194.512 87.4215 174.1 92.3171C171.388 89.8097 170.875 87.0374 170.875 87.0374Z" fill="white"/>
<path d="M158.353 143.296C173.864 142.819 181.395 152.098 176.606 176.534C176.606 176.534 154.232 175.607 153.867 161.956C156.685 147.482 158.353 143.296 158.353 143.296Z" fill="#B290FA"/>
<path d="M147.036 149.248C146.274 144.95 143.216 141.164 139.094 139.806C136.893 139.12 134.661 138.991 132.446 139.535C130.231 140.079 128.131 141.049 126.015 141.823C121.782 143.37 117.27 144.425 112.755 144.052C110.276 143.825 107.764 143.205 105.596 141.96C104.593 141.37 103.542 140.666 102.753 139.781C101.799 138.83 100.993 137.748 100.155 136.748C98.5436 135.06 96.4405 133.651 93.9951 133.818C91.3853 133.92 89.7472 136.12 88.9463 138.369C88.75 138.861 88.9477 139.32 89.2108 139.615C89.6729 141.321 91.0536 142.632 92.4504 143.664C94.4881 145.237 96.5585 146.728 98.7438 148.17C102.999 151.102 107.468 153.739 112.15 156.08C116.617 158.24 121.364 159.942 126.175 161.003C128.523 161.558 130.969 161.867 133.366 162.061C135.877 162.206 137.994 161.909 140.044 160.348C141.946 158.918 143.962 157.439 145.601 155.714C147.158 153.957 147.466 151.512 147.036 149.248Z" fill="white"/>
<path d="M89.9133 137.137C90.1255 136.365 90.6168 135.61 91.4206 135.265C92.8312 134.59 93.9635 134.376 95.4736 134.407C95.8675 134.374 96.2781 134.537 96.6066 134.668C98.3304 134.88 100.006 135.452 101.567 136.55C104.771 138.778 106.22 142.304 110.276 143.349C114.496 144.46 119.059 143.996 123.259 143.007C126.639 142.166 129.657 140.325 133.004 139.567C142.259 137.358 146.8 145.064 148.405 153.217C150.615 149.343 152.003 144.665 151.438 139.874C150.69 133.394 145.524 125.82 138.936 121.577C110.478 102.724 80.6839 112.06 88.4533 137.696C89.0274 137.45 89.454 137.334 89.9133 137.137Z" fill="#B290FA"/>
<path d="M152.472 139.906C151.625 133.197 146.361 125.392 139.641 121.003C110.214 101.477 79.3859 111.258 87.7969 137.911C90.1375 144.455 98.3872 150.976 107.997 155.756C119.019 161.29 130.909 165.362 138.128 163.483C144.888 161.802 153.818 151.095 152.472 139.906ZM146.958 151.595C143.21 158.851 138.423 162.745 126.484 159.034C111.212 154.374 86.5953 146.657 89.487 126.505C96.1277 110.796 109.834 111.027 132.73 120.912C144.147 126.888 153.651 138.379 146.958 151.595Z" fill="#3A2A66"/>
<path d="M119.236 120.385C118.76 119.91 118.021 119.615 117.414 119.944C116.348 120.47 115.43 121.341 114.512 122.212C113.545 122.967 112.659 123.756 111.873 124.774C111.48 125.283 111.432 126.12 111.876 126.677C112.09 126.858 112.303 127.038 112.55 127.136C112.878 127.267 113.436 127.299 113.781 127.151C114.158 126.921 114.502 126.773 114.797 126.51C115.06 126.329 115.207 126.198 115.387 125.984C115.83 125.59 116.24 125.278 116.683 124.884C117.125 124.489 117.535 124.177 117.978 123.783C118.453 123.306 119.01 122.863 119.404 122.354C119.665 121.697 119.68 120.942 119.236 120.385Z" fill="#3A2A66"/>
<path d="M126.991 124.806C127.072 124.363 127.071 123.887 126.644 123.527C126.266 123.281 125.708 123.249 125.298 123.561C124.265 124.481 123.446 125.581 122.66 126.6C121.841 127.7 120.989 128.882 120.334 130.048C120.023 130.59 120.336 131.475 120.796 131.754C121.306 132.147 122.143 132.195 122.618 131.719C122.913 131.456 123.241 131.111 123.536 130.848C123.749 130.553 123.929 130.339 124.142 130.044C124.453 129.502 124.847 128.993 125.158 128.451C125.895 127.318 126.664 126.103 126.991 124.806Z" fill="#3A2A66"/>
<path d="M147.059 142.98C143.556 138.161 137.053 135.854 131.359 137.485C128.455 138.325 125.946 140.083 123.158 141.35C120.517 142.485 117.662 142.964 114.821 142.688C111.981 142.412 109.206 141.496 106.889 139.907C104.277 138.106 102.303 135.417 99.5924 133.861C96.5365 131.978 92.9254 131.965 89.9246 134.003C89.3672 134.447 88.8098 134.89 88.269 135.531C88.7465 136.482 89.1912 137.515 89.5538 138.516C90.1105 137.596 90.8315 136.742 91.8155 136.183C94.2755 134.786 96.87 135.439 98.9898 137.045C101.323 138.831 103.181 141.093 105.695 142.665C107.995 144.057 110.492 144.957 113.151 145.446C115.729 145.903 118.421 145.834 121.03 145.257C123.754 144.631 126.148 143.397 128.576 142.082C130.97 140.849 133.349 139.895 136.025 140.105C138.586 140.365 141.017 141.428 142.907 143.133C146.391 146.328 147.285 151.25 146.11 155.632C146.257 155.5 146.356 155.254 146.503 155.123C147.452 153.218 148.451 151.429 149.696 149.737C149.446 147.26 148.572 144.915 147.059 142.98Z" fill="#3A2A66"/>
<path d="M95.1286 145.302C95.4737 145.63 95.901 145.99 96.2462 146.318C96.2789 146.236 96.3116 146.154 96.3444 146.072C96.9658 144.512 97.5545 143.035 98.3401 141.541C99.011 140.096 99.7639 138.684 100.402 137.322C100.467 137.158 100.533 136.994 100.598 136.829C100.089 136.436 99.5627 135.846 99.1187 135.289C99.0366 135.256 98.9544 135.223 98.905 135.109C98.8229 135.076 98.8556 134.994 98.7735 134.961C98.5278 135.339 98.2822 135.716 98.0365 136.094C97.2015 137.473 96.4812 138.803 95.8104 140.248C95.1723 141.61 94.5669 142.891 94.0109 144.286C94.4382 144.646 94.8161 144.892 95.1286 145.302Z" fill="#3A2A66"/>
<path d="M108.074 152.458C107.894 153.147 107.83 153.787 107.65 154.476C108.504 154.722 109.243 155.016 110.064 155.343C110.276 154.572 110.456 153.883 110.668 153.111C111.109 151.29 111.549 149.468 111.99 147.646C112.251 146.514 112.511 145.381 112.772 144.249C112.083 144.069 111.311 143.857 110.654 143.595C110.49 143.529 110.408 143.497 110.276 143.349C109.982 144.564 109.607 145.745 109.346 146.878C108.955 148.814 108.514 150.636 108.074 152.458Z" fill="#3A2A66"/>
<path d="M133.496 161.733C133.94 161.815 134.301 161.863 134.744 161.945C134.727 161.748 134.678 161.633 134.661 161.436C134.296 158.533 134.095 155.694 133.697 152.873C133.282 149.854 132.67 146.852 131.943 143.9C131.613 142.341 131.2 140.75 130.754 139.241C129.967 139.784 129.131 140.211 128.294 140.639C128.608 142 129.037 143.312 129.269 144.641C129.963 147.676 130.575 150.678 130.957 153.778C131.305 156.485 131.457 159.209 131.806 161.915C132.265 161.718 132.774 161.635 133.496 161.733Z" fill="#3A2A66"/>
<path d="M171.925 86.3144C171.973 85.9533 172.071 85.7071 172.17 85.4609C172.153 85.264 172.186 85.1819 172.169 84.9851C169.347 85.8578 166.542 86.9274 163.819 88.0297C158.569 90.2177 153.369 92.5205 148.137 94.9054C142.215 97.5864 136.376 100.3 130.504 103.096C127.65 104.526 124.829 105.875 121.975 107.306C119.006 108.786 116.169 110.413 113.299 112.123C112.052 112.862 113.254 114.863 114.632 114.271C117.24 113.218 119.766 112.132 122.358 110.882C124.867 109.599 127.426 108.432 129.935 107.149C134.889 104.748 139.81 102.429 144.845 100.061C149.963 97.7255 155.081 95.3899 160.248 93.1692C164.037 91.5407 167.892 89.748 171.862 88.3818C171.812 87.7912 171.795 87.1185 171.925 86.3144Z" fill="#3A2A66"/>
<path d="M198.083 126.221C197.752 124.187 194.994 124.419 194.636 126.274C194.31 128.046 194.05 129.654 193.396 131.296C192.693 132.823 191.743 134.251 190.612 135.417C188.203 137.881 184.905 139.23 181.458 139.283C177.897 139.386 174.3 138.143 171.49 135.881C169.912 134.587 168.548 132.997 166.822 131.834C165.179 130.704 163.373 129.984 161.304 129.92C157.086 129.761 152.525 131.653 149.263 134.347C148.115 135.317 149.185 137.169 150.645 136.61C154.107 135.326 157.402 133.026 161.162 133.383C165.397 133.739 167.587 138.035 170.938 140.132C177.806 144.39 187.145 144.117 192.996 138.27C195.996 135.28 198.697 130.65 198.083 126.221Z" fill="#3A2A66"/>
<path d="M206.955 165.327C193.809 177.302 168.47 180.234 156.596 165.136C154.799 159.379 159.349 150.826 160.177 144.688C161.221 140.635 162.512 136.679 163.36 132.642C160.822 126.114 157.775 141.163 157.023 143.051C155.54 150.354 151.924 157.758 152.509 165.124C163.699 184.325 194.128 181.994 209.045 168.442C208.141 167.606 207.417 166.557 206.955 165.327Z" fill="#3A2A66"/>
<path d="M197.736 102.972C195.677 97.8715 172.894 97.7326 162.124 96.5796C158.293 92.1046 149.147 78.759 145.289 78.6484C141.432 78.5378 133.754 91.8364 136.62 98.4947C137.699 107.009 146.296 115.285 155.104 110.616C156.725 118.965 162.917 121.814 169.91 122.413C186.311 124.003 199.714 108.04 197.736 102.972Z" fill="#3A2A66"/>
<path d="M221.593 107.819C218.931 105.902 216.515 103.608 215.804 100.376C215.094 97.1447 214.859 93.9127 213.804 90.8292C212.848 87.9753 211.202 84.9418 208.639 83.2546C205.73 81.2397 201.987 80.604 198.475 80.8211C196.538 80.9053 194.602 81.4653 192.666 82.0253C190.73 82.5853 185.133 83.0181 183.263 83.8898C181.967 84.5147 182.791 86.2694 184.153 85.9561C187.483 85.0008 194.261 83.9924 197.724 83.6605C200.957 83.4272 204.208 83.8666 206.771 86.0296C211.554 90.0277 211.203 96.6403 212.82 102.135C213.364 103.874 214.17 105.432 215.469 106.71C216.472 107.775 217.737 108.66 218.92 109.512C217.267 112.467 213.461 113.899 210.144 113.148C206.023 112.266 203.194 108.856 201.728 105.134C200.212 101.296 200.665 96.8161 197.771 93.5706C195.223 90.6528 191.314 89 187.407 88.7746C184.895 88.6297 182.384 88.9607 179.972 89.5212C178.725 89.7851 177.528 90.1638 176.248 90.5098C175.592 90.7238 174.968 90.8557 174.394 91.1025C174.082 91.1684 173.705 91.3986 173.311 91.4318C173.294 91.2349 173.36 91.0708 173.343 90.8739C173.375 90.316 173.292 89.8075 173.324 89.2496C173.273 88.1832 173.19 87.1988 173.024 86.1817C172.775 84.1803 172.444 82.1461 170.784 80.8189C169.288 79.5572 167.171 79.3791 165.317 79.9718C163.381 80.5318 161.905 81.846 160.43 83.1602C159.25 84.2116 160.681 86.1133 161.943 85.0947C163.582 83.8459 166.894 81.2662 168.933 83.3149C169.837 84.1507 169.84 86.054 170.022 87.2679C170.238 88.8756 170.174 90.4672 170.226 92.0095C170.327 93.6665 171.576 94.8301 173.267 94.6477C174.76 94.482 176.285 93.7584 177.68 93.3631C180.584 92.5231 183.702 91.8633 186.722 91.9256C189.184 91.9557 191.746 92.6912 193.734 94.1493C195.936 95.7876 196.842 98.0509 197.224 100.676C197.589 103.579 198.267 106.417 199.633 108.959C201.13 111.648 203.251 113.729 205.912 115.17C211.81 118.281 219.767 116.221 221.941 109.574C222.317 108.868 222.135 108.13 221.593 107.819Z" fill="#3A2A66"/>
<path d="M209.365 140.893C210.329 138.234 211.491 135.559 212.784 133.03C214.109 130.42 215.731 128.023 217.056 125.413C217.973 123.59 215.197 122.199 214.017 123.726C212.264 125.976 210.906 128.668 209.695 131.229C208.402 133.757 207.241 136.433 206.276 139.092C205.312 141.751 204.462 144.361 203.744 147.118C203.336 148.858 203.027 150.827 202.423 152.583C201.912 151.238 201.696 149.631 201.579 148.253C201.312 145.578 201.522 142.904 201.895 140.295C202.659 134.797 204.555 129.561 206.336 124.374C207.53 121.141 208.953 117.808 209.539 114.428C209.717 113.263 207.861 112.428 207.239 113.512C205.536 116.352 204.589 119.684 203.461 122.753C202.432 125.576 201.434 128.318 200.569 131.206C198.837 136.984 197.599 142.957 198.149 148.978C198.384 152.21 199.242 155.31 201.659 157.605C202.349 158.26 203.678 158.029 204.169 157.274C205.741 154.762 206.181 151.988 206.931 149.149C207.485 146.326 208.318 143.52 209.365 140.893Z" fill="#3A2A66"/>
<path d="M226.274 131.654C227.467 128.42 227.045 120.643 225.256 120.596C223.549 120.582 223.97 127.883 222.924 130.509C211.46 147.815 220.777 177.207 219.711 177.733C218.612 178.342 211.185 172.624 209.182 161.649C208.222 156.416 207.678 143.455 207.678 143.455C207.678 143.455 206.447 143.44 205.871 142.735C204.733 149.89 204.452 159.669 206.926 167.788C208.559 173.004 215.795 182.069 221.67 181.653C225.232 181.55 214.744 149.124 226.274 131.654Z" fill="#3A2A66"/>
<path d="M182.732 112.685C181.862 112.719 181.124 113.376 180.485 113.787C179.878 114.116 179.271 114.445 178.664 114.774C177.336 115.481 175.892 116.237 174.415 116.6C173.054 116.913 171.61 117.193 170.198 117.392C169.493 117.491 168.82 117.508 168.097 117.411C167.736 117.362 167.375 117.313 166.981 117.346C166.587 117.379 166.193 117.413 165.799 117.446C165.208 117.496 165.16 118.333 165.653 118.529C166.392 118.824 167 118.971 167.804 119.101C168.559 119.116 169.314 119.132 170.152 119.18C171.744 119.244 173.237 119.078 174.747 118.634C176.338 118.222 177.815 117.859 179.308 117.218C180.079 116.954 180.801 116.576 181.572 116.313C182.375 115.967 183.426 115.72 184.032 114.915C184.9 113.93 183.881 112.668 182.732 112.685Z" fill="white"/>
<path d="M189.521 108.544C189.373 108.199 189.077 107.986 188.716 107.937C188.519 107.954 188.437 107.921 188.24 107.938C188.043 107.955 187.895 108.086 187.748 108.217C187.715 108.299 187.633 108.267 187.6 108.349L187.486 108.398C187.256 108.497 187.108 108.628 186.994 108.678C187.108 108.628 187.223 108.579 187.256 108.497C187.108 108.628 186.879 108.727 186.682 108.744C186.452 108.842 186.337 108.892 186.157 109.105C186.042 109.155 186.01 109.237 185.895 109.286C185.78 109.335 185.747 109.417 185.6 109.549C185.452 109.68 185.387 109.844 185.403 110.041C185.371 110.123 185.305 110.287 185.355 110.402C185.371 110.599 185.421 110.714 185.438 110.911C185.536 111.14 185.668 111.288 185.882 111.468C186.177 111.681 186.539 111.73 186.932 111.697C187.047 111.647 187.129 111.68 187.244 111.631L187.326 111.663C187.638 111.597 187.753 111.548 188.015 111.367C188.048 111.285 188.13 111.318 188.163 111.236C188.425 111.055 188.573 110.924 188.753 110.71C188.9 110.579 188.933 110.497 189.081 110.365C189.146 110.201 189.326 109.988 189.392 109.824C189.424 109.741 189.457 109.659 189.523 109.495C189.621 109.249 189.587 108.855 189.521 108.544Z" fill="white"/>
<path d="M153.386 103.464C152.565 103.613 151.844 103.991 151.073 104.254L150.958 104.304C150.843 104.353 150.761 104.32 150.646 104.37C150.449 104.386 150.252 104.403 150.105 104.534C149.711 104.568 149.284 104.683 148.89 104.716C148.102 104.783 147.544 104.751 146.789 104.735C146.313 104.736 145.87 104.654 145.394 104.655C144.918 104.655 144.524 104.688 144.13 104.722C143.736 104.755 143.523 105.05 143.754 105.427C144.313 106.411 145.184 106.853 146.267 107C147.154 107.163 148.106 107.162 149.058 107.161C149.928 107.127 150.748 106.978 151.569 106.83C152.504 106.632 153.554 106.385 154.374 105.76C155.374 104.922 154.6 103.283 153.386 103.464Z" fill="white"/>
<path d="M203.632 83.1616C203.362 78.1084 201.418 73.4344 199.934 68.563C198.268 62.9534 197.176 57.0971 196.051 51.3229C195.77 49.8794 195.521 48.3537 195.158 46.8775C194.893 45.6308 194.76 44.0558 193.396 43.4174C190.588 42.1079 189.428 45.7353 188.922 47.7211C187.485 53.2357 186.936 58.9133 186.78 64.5576C186.621 67.8229 186.576 71.0388 186.417 74.3041C186.258 77.5694 185.852 80.7365 185.529 83.9363L185.496 84.0184C185.611 83.9691 185.611 83.9691 185.726 83.9197C186.317 83.8698 186.907 83.82 187.466 83.8522C187.745 83.8683 187.942 83.8516 188.221 83.8677C189.428 78.9277 189.453 73.6117 189.576 68.5252C189.7 63.4387 189.939 58.3029 190.735 53.1993C190.98 51.87 191.191 50.6228 191.518 49.3262C191.697 48.6369 191.959 47.9803 192.138 47.291C192.204 47.6027 192.221 47.7995 192.287 48.1112C192.601 49.4727 192.8 50.8835 193.114 52.245C194.074 57.4779 195.116 62.7436 196.502 67.8612C197.294 70.6496 198.234 73.3066 199.141 76.0457C199.85 78.3255 200.527 80.6875 200.612 83.0993C201.728 83.1637 202.68 83.1626 203.632 83.1616Z" fill="#3A2A66"/>
<path d="M199.169 73.1092C198.693 73.1097 198.201 73.3892 197.742 73.5866C197.282 73.784 196.938 73.932 196.511 74.0473C195.708 74.3928 194.854 74.6234 193.952 74.7393C193.131 74.8879 192.229 75.0037 191.391 74.9554C190.439 74.9565 189.389 74.7279 188.503 75.0406C187.961 75.2053 187.913 76.0422 188.341 76.4027C189.146 77.0088 190.377 77.0239 191.329 77.0228C192.363 77.0545 193.348 76.9714 194.365 76.8062C195.268 76.6903 196.236 76.4103 197.171 76.2124C197.713 76.0477 198.172 75.8503 198.713 75.6857C199.287 75.4389 199.829 75.2742 200.222 74.7652C200.713 74.0099 199.957 73.0427 199.169 73.1092Z" fill="#3A2A66"/>
<path d="M196.182 62.2173C195.984 61.7581 195.574 61.5945 195.098 61.595C195.377 61.6111 194.983 61.6444 194.901 61.6117C194.786 61.661 194.589 61.6776 194.474 61.727C194.359 61.7763 194.244 61.8257 194.13 61.875C194.015 61.9244 193.9 61.9737 193.703 61.9904L193.588 62.0397C193.047 62.2044 192.538 62.287 191.947 62.3369C191.832 62.3862 191.668 62.3208 191.553 62.3701C191.471 62.3374 191.438 62.4195 191.356 62.3867L191.274 62.354C190.995 62.3379 190.716 62.3218 190.519 62.3384C189.961 62.3062 189.157 62.1759 188.632 62.5374C188.369 62.7182 188.353 62.9971 188.42 63.3088C188.716 63.9976 189.635 64.0786 190.243 64.2256C190.85 64.3726 191.523 64.3554 192.114 64.3056C192.705 64.2557 193.296 64.2058 193.805 64.1232C194.116 64.0572 194.543 63.9419 194.855 63.8759C195.199 63.7279 195.511 63.6619 195.806 63.3991C196.183 63.169 196.379 62.6765 196.182 62.2173Z" fill="#3A2A66"/>
<path d="M189.633 73.8738C189.598 72.0526 188.463 70.3639 187.394 68.9868C186.243 67.5771 184.879 66.4629 183.334 65.5621C179.835 63.5971 175.78 63.0273 171.792 63.245C168.082 63.4788 164.358 64.4674 161.374 66.7021C158.127 69.1176 156.097 72.7788 154.379 76.3739C153.299 78.6065 152.301 80.8719 151.468 83.2027C151.125 84.3023 150.749 85.4841 150.406 86.5838C150.112 87.7983 149.556 89.1935 149.821 90.4402C150.036 91.5721 151.465 92.0463 152.251 91.0282C152.857 90.2236 153.053 89.2553 153.248 88.287C153.526 87.3515 153.803 86.416 154.081 85.4804C154.636 83.6093 155.389 81.7216 156.108 79.916C157.498 76.6658 159.151 73.2348 161.593 70.6889C163.773 68.3238 166.807 67.1555 169.975 66.6106C173.421 66.0817 176.999 66.1762 180.284 67.4852C181.926 68.1397 183.356 69.0897 184.54 70.4174C185.838 71.6958 186.53 73.303 187.452 74.8114C188.257 75.8934 189.684 74.9402 189.633 73.8738Z" fill="#3A2A66"/>
<path d="M226.031 101.218C225.759 94.7372 226.964 87.894 224.607 81.6289C223.585 78.9392 221.907 76.4635 219.508 74.8418C216.485 72.8762 212.94 72.6997 209.46 72.8348C206.374 72.9366 202.353 73.2364 200.453 76.0934C199.995 76.7666 200.669 77.7011 201.473 77.3557C203.934 76.4341 206.363 76.0705 209.005 75.8871C211.812 75.7691 215.062 75.7327 217.493 77.2723C221.946 80.188 222.759 86.0281 222.783 90.9832C222.804 94.5108 222.432 98.0716 222.897 101.681C223.013 102.583 223.901 103.222 224.721 103.073C225.624 102.958 226.066 102.087 226.031 101.218Z" fill="#3A2A66"/>
<path d="M238.773 114.855C239.949 110.949 240.928 107.059 241.579 103.038C242.767 96.474 243.181 87.7939 236.724 83.6992C233.159 81.4225 228.152 80.8538 224.049 81.5966C222.523 81.8444 222.592 84.0594 224.119 84.2874C227.534 84.7922 231.111 84.4109 234.151 86.0975C236.565 87.4403 238.046 89.9326 238.592 92.6228C239.27 95.9364 238.799 99.2677 238.164 102.533C237.512 106.078 236.697 109.558 235.717 112.971C234.591 116.992 232.971 120.817 231.68 124.773C231.501 125.462 231.683 126.2 232.307 126.544C232.849 126.855 233.834 126.772 234.177 126.148C236.257 122.602 237.597 118.761 238.773 114.855Z" fill="#3A2A66"/>
<path d="M229.407 141.462C229.734 140.165 227.828 139.216 226.828 140.054C225.468 141.318 224.683 143.288 223.865 144.864C223.046 146.44 222.277 148.131 221.541 149.74C220.118 153.072 218.744 156.519 218.339 160.162C218.21 161.442 219.901 161.736 220.49 160.734C222.209 157.615 223.353 154.266 224.826 151.049C225.562 149.44 226.266 147.913 227.084 146.337C227.82 144.729 229 143.201 229.407 141.462Z" fill="#3A2A66"/>
<path d="M232.172 168.433C231.528 165.513 231.146 162.888 231.487 159.885C231.827 156.883 232.775 154.027 233.936 151.351C236.733 145.047 240.944 139.497 243.741 133.193C246.097 127.76 247.335 121.786 247.26 115.765C247.223 112.516 246.824 109.218 245.998 106.036C245.618 104.363 245.124 102.739 244.432 101.132C243.74 99.525 242.95 98.164 241.963 96.8197C241.108 95.6229 239.501 96.7896 239.848 98.069C240.276 99.3812 240.623 100.661 241.052 101.973C241.513 103.203 241.86 104.482 242.206 105.762C242.949 108.435 243.38 111.175 243.499 113.98C243.835 119.345 242.99 124.81 241.192 129.8C236.925 141.224 226.91 150.834 227.372 163.762C227.391 165.387 227.722 166.945 228.135 168.536C228.399 169.783 228.927 171.324 228.518 172.588C227.734 175.034 221.334 175.812 221.334 175.812L221.123 178.011C221.123 178.011 227.706 178.447 229.87 176.836C232.707 174.733 232.817 171.353 232.172 168.433Z" fill="#3A2A66"/>
<path d="M214.583 73.8301C213.694 72.2396 212.822 70.8459 211.524 69.5675C210.258 68.2071 208.894 67.0929 207.235 66.2415C204.442 64.6531 200.928 63.9186 197.811 65.0542C196.121 65.7124 196.913 68.5008 198.669 68.1543C201.163 67.6265 203.659 68.0503 205.877 69.4097C207.175 70.2122 208.325 71.1462 209.361 72.1295C210.478 73.1455 211.596 74.1616 212.796 75.2103C213.733 75.964 215.192 74.9287 214.583 73.8301Z" fill="#3A2A66"/>
<path d="M107.692 0C97.2311 0 85.0006 1.31507 70.2318 4.09993C59.0013 6.18857 46.4632 10.2885 35.6173 15.4714C26.156 19.9581 13.464 27.4618 6.69495 37.7503C1.31047 45.718 -2.2279 59.2555 1.61816 69.6987C3.84887 75.7326 8.23337 79.7552 14.2332 81.3797C18.387 82.54 23.6945 83.0815 29.8482 83.0815C43.3094 83.0815 61.7705 80.374 84.6929 75.1137C93.1543 88.0324 96.1542 88.0324 97.4618 88.0324C98.0003 88.0324 98.4618 87.955 99.0003 87.723C101.616 86.5626 101.923 82.8495 101.923 79.059C101.923 76.5062 101.692 73.5666 101.385 71.0912C103 70.627 104.692 70.2402 106.385 69.7761C114.615 68.229 122.384 65.5215 129.076 62.1178C136.999 58.0178 142.922 52.9123 146.614 47.1105C150.999 40.2257 152.153 32.4126 149.999 23.9807C147.999 16.0903 143.614 10.1338 136.922 6.18857C129.923 2.01128 120.384 0 107.692 0Z" fill="white"/>
<path d="M147.615 24.5994C142.692 5.18275 122.384 -2.93974 70.6935 6.65254C51.3094 10.2883 20.2333 21.8919 8.84894 39.1425C0.695306 51.1329 -1.5354 74.4174 14.9257 78.9041C36.0021 84.6285 81.2317 73.7985 105.846 67.2232C127.923 62.9685 153.845 49.431 147.615 24.5994Z" fill="#3A2A66"/>
<path d="M85.1546 71.0136C85.1546 71.0136 94.8467 86.7945 98.0004 85.3247C101.154 83.8549 98.0004 64.5156 98.0004 64.5156L85.1546 71.0136Z" fill="#3A2A66"/>
<path d="M22.6183 56.7802C22.3106 55.6972 27.8489 45.7181 25.1567 44.5578C22.4644 43.3974 21.2337 52.7576 20.003 53.2218C18.7722 53.6086 13.6185 48.3483 12.2339 50.2822C10.8493 52.2161 19.4645 56.5481 19.6184 57.4764C19.7722 58.4047 23.0029 72.4063 26.0028 71.6328C29.0796 70.7818 22.926 57.7858 22.6183 56.7802Z" fill="#B1FF00"/>
<path d="M42.3103 46.8786C39.2335 42.7013 33.7721 42.1598 29.7722 48.1936C24.08 56.7029 29.6953 64.3613 37.3874 63.7424C43.6949 63.2009 49.8486 56.3161 42.3103 46.8786ZM42.0796 56.7803C41.3104 59.101 39.0027 60.4934 36.5413 60.8028C30.4645 61.8085 29.6184 52.6804 32.3106 49.2766C36.9259 43.7069 43.7718 51.9841 42.0796 56.7803Z" fill="#B1FF00"/>
<path d="M140.23 30.4011C138.769 26.688 141 18.1013 137.23 18.5655C133.461 19.0296 137.077 29.2407 137.307 31.4067C137.846 33.3407 140.846 32.335 140.23 30.4011Z" fill="#B1FF00"/>
<path d="M142.461 35.6615C141.923 33.2634 137.154 34.1143 136.461 35.8935C136.23 39.0652 142.692 38.6784 142.461 35.6615Z" fill="#B1FF00"/>
<path d="M65.3093 29.318C61.3863 30.0916 60.5402 41.8498 59.0017 42.7008C57.4633 43.4743 50.2327 34.1141 47.6943 36.4348C45.156 38.7556 49.2328 63.4325 53.1557 62.5042C57.0787 61.5759 50.5404 45.3309 51.8481 43.8611C53.1557 42.3913 58.9248 49.6629 61.1555 48.9667C63.3862 48.2705 62.8478 39.3744 64.9247 38.9103C67.0785 38.4461 68.463 58.3269 72.1553 57.1665C75.8475 56.0835 69.2323 28.5444 65.3093 29.318Z" fill="white"/>
<path d="M87.5393 36.3576C87.0778 33.4181 84.0779 26.4559 78.8472 27.2295C73.6166 28.0031 72.0782 33.8049 73.0012 39.2972C73.6935 43.6292 75.6935 47.8838 81.001 47.4197C86.2316 46.9556 88.3085 41.5406 87.5393 36.3576ZM80.6933 44.1707C77.3088 44.4801 76.0011 41.5406 75.5396 38.601C75.0012 34.8879 75.9242 30.9426 79.3087 30.4011C82.6933 29.8596 84.6163 34.5784 84.924 36.5897C85.4624 40.1481 84.0779 43.8613 80.6933 44.1707Z" fill="white"/>
<path d="M92.386 24.6763L89.1553 25.9913L93.3091 53.0663L96.6167 52.3701L92.386 24.6763Z" fill="white"/>
<path d="M104.539 28.467C101.617 16.7861 85.6169 21.969 86.3861 25.9916C86.9246 29.0859 100.54 19.7257 102.616 31.0198C104.232 39.7612 93.9244 41.5404 93.9244 41.5404L94.1552 44.4026C94.1552 44.4026 101.54 42.3913 102.155 47.4195C102.693 51.6742 89.9245 51.0553 90.463 53.6855C91.0014 56.3156 105.155 54.3817 105.232 47.729C105.232 44.9441 104.078 42.7007 101.232 41.6951C103.463 39.9159 106.693 37.2084 104.539 28.467Z" fill="white"/>
<path d="M107.078 26.4557C106.539 27.4614 108.847 47.8836 109.462 49.044C110.078 50.2043 112.078 49.4308 112.385 48.2704C113.001 46.1044 110.693 29.3953 109.539 26.4557C108.924 25.0633 107.616 25.5274 107.078 26.4557Z" fill="white"/>
<path d="M121.539 45.486C121.539 45.486 117.154 22.8977 116.385 22.0468C115.616 21.1958 114 21.3506 113.308 22.8977C112.616 24.4448 118.385 46.9558 118.385 46.9558L121.539 45.486Z" fill="white"/>
<path d="M132.307 40.5348C128.846 40.3801 114.308 45.6404 115.462 48.2705C115.923 49.3535 120.385 47.729 125 46.7234C129.307 45.7178 133.846 45.4083 134.538 44.248C135.384 43.0103 134.846 40.6122 132.307 40.5348Z" fill="white"/>
<path d="M133.231 32.0254C131.461 32.4121 128.846 33.9593 126.461 34.5008C125.385 31.0197 124.615 27.3066 124.231 23.6708C126.077 22.4331 129.154 22.5104 129.846 21.5048C130.538 20.4991 130.308 19.4161 128.923 19.1067C127.538 18.7973 122 19.8803 121.077 22.201C120.308 24.1349 122.539 36.8989 124.692 37.5951C126.846 38.3686 133 35.6611 134.384 34.9649C135.923 34.3461 135 31.6386 133.231 32.0254Z" fill="white"/>
<path d="M129.461 30.6328C130.615 30.1686 129.769 27.9253 128.846 27.8479C126.692 27.6932 124.077 29.6271 124.077 29.6271L124.846 32.1026C124.846 32.1799 128.154 31.2516 129.461 30.6328Z" fill="white"/>
<path d="M86.924 50.05C85.3856 48.8896 77.7704 50.5915 76.9243 51.5971C76.0781 52.6028 76.3089 54.1499 77.3858 54.4593C78.4627 54.7688 85.8471 53.7631 86.8471 53.299C88.0778 52.6801 87.7702 50.6689 86.924 50.05Z" fill="white"/>
</svg>
