<svg width="82" height="20" viewBox="0 0 82 20" fill="none" xmlns="http://www.w3.org/2000/svg">
<path d="M10.25 0.161377H9.73319H9.30252C4.13445 0.41978 0 4.7265 0 9.9807C0 15.2349 4.13445 19.5416 9.30252 19.8H10.25C15.4181 19.5416 19.5525 15.2349 19.5525 9.9807C19.6387 4.7265 15.5042 0.41978 10.25 0.161377ZM9.30252 18.8526C4.65126 18.5942 0.947479 14.7181 0.947479 9.9807C0.947479 5.24331 4.65126 1.36726 9.30252 1.10886V18.8526ZM14.729 11.8757C13.6954 11.8757 12.834 11.0143 12.834 9.9807C12.834 8.94709 13.6954 8.08575 14.729 8.08575C15.7626 8.08575 16.6239 8.94709 16.6239 9.9807C16.6239 11.0143 15.7626 11.8757 14.729 11.8757Z" fill="white"/>
<path d="M77.8655 11.5309V10.5835H81.7416V9.29145H77.8655V8.43011H81.8277V7.13809H75.9706V12.9952H82V11.6171H77.8655V11.5309ZM71.3193 11.5309V7.13809H69.4243V12.9952H75.2815V11.5309H71.3193ZM66.668 7.13809V12.9952H68.563V7.13809H66.668ZM65.7206 10.2389C65.5483 9.98053 65.2899 9.89439 64.9454 9.80826V9.72212C65.4622 9.54985 65.8067 9.20532 65.8067 8.60238C65.8067 7.56876 65.1176 7.05195 63.8256 7.05195H59.1743V12.9091H63.9117C64.6008 12.9091 65.2038 12.7368 65.4622 12.4784C65.8067 12.22 65.979 11.7894 65.979 11.1864C65.979 10.8419 65.8928 10.4973 65.7206 10.2389ZM61.0693 8.43011H63.2227C63.5672 8.43011 63.7395 8.60238 63.7395 8.86078C63.7395 9.20532 63.5672 9.37758 63.2227 9.37758H61.0693V8.43011ZM63.7395 11.5309C63.6533 11.6171 63.4811 11.6171 63.2227 11.6171H60.9832V10.5835H63.2227C63.4811 10.5835 63.5672 10.5835 63.7395 10.7557C63.8256 10.8419 63.9117 11.0141 63.9117 11.1864C63.9117 11.2725 63.9117 11.4448 63.7395 11.5309ZM57.4517 7.74103C56.7626 7.22422 55.8151 6.96582 54.6092 6.96582C53.4033 6.96582 52.4559 7.22422 51.7668 7.74103C51.0777 8.25784 50.7332 9.03305 50.7332 10.0667C50.7332 11.1003 51.0777 11.8755 51.7668 12.3923C52.4559 12.9091 53.4033 13.1675 54.6092 13.1675C55.8151 13.1675 56.7626 12.9091 57.4517 12.3923C58.1407 11.8755 58.4853 11.1003 58.4853 10.0667C58.4853 9.03305 58.1407 8.25784 57.4517 7.74103ZM55.9874 11.1864C55.729 11.4448 55.2122 11.6171 54.6954 11.6171C54.0924 11.6171 53.6617 11.4448 53.4033 11.1864C53.1449 10.928 52.9727 10.4973 52.9727 9.98053C52.9727 9.46372 53.1449 9.03305 53.4033 8.77464C53.6617 8.51624 54.1785 8.34397 54.6954 8.34397C55.2983 8.34397 55.729 8.51624 55.9874 8.77464C56.2458 9.03305 56.418 9.46372 56.418 9.98053C56.418 10.5835 56.2458 10.928 55.9874 11.1864ZM47.0294 7.13809L45.9096 10.5835H45.8235L44.7038 7.13809H41.6891V12.9952H43.4979V8.86078H43.584L45.1344 12.9952H46.5987L48.1491 8.94691H48.2353V12.9952H50.1302V7.13809H47.0294ZM37.2962 7.74103C36.6071 7.22422 35.6596 6.96582 34.4538 6.96582C33.2479 6.96582 32.3004 7.22422 31.6113 7.74103C30.9222 8.25784 30.5777 9.03305 30.5777 10.0667C30.5777 11.1003 30.9222 11.8755 31.6113 12.3923C32.3004 12.9091 33.2479 13.1675 34.4538 13.1675C35.6596 13.1675 36.6071 12.9091 37.2962 12.3923C37.9853 11.8755 38.3298 11.1003 38.3298 10.0667C38.3298 9.03305 37.9853 8.25784 37.2962 7.74103ZM35.8319 11.1864C35.5735 11.4448 35.0567 11.6171 34.5399 11.6171C33.9369 11.6171 33.5063 11.4448 33.2479 11.1864C32.9895 10.928 32.8172 10.4973 32.8172 9.98053C32.8172 9.46372 32.9895 9.03305 33.2479 8.77464C33.5063 8.51624 34.0231 8.34397 34.5399 8.34397C35.1428 8.34397 35.5735 8.51624 35.8319 8.77464C36.0903 9.03305 36.2626 9.46372 36.2626 9.98053C36.2626 10.5835 36.0903 10.928 35.8319 11.1864ZM28.855 7.13809L27.3907 9.46372L25.9264 7.13809H23.687L26.4433 11.0141V12.9952H28.3382V11.0141L31.0945 7.13809H28.855Z" fill="white"/>
<path d="M3.01472 8.68848C2.92859 8.51622 3.01472 8.25781 3.27313 8.25781H6.54623C6.7185 8.25781 6.89077 8.51622 6.80464 8.68848L5.16808 11.4448C5.08195 11.6171 4.82355 11.6171 4.65128 11.4448L3.01472 8.68848Z" fill="white"/>
</svg>
