<svg width="121" height="70" viewBox="0 0 121 70" fill="none" xmlns="http://www.w3.org/2000/svg">
<path d="M73.3186 0.308472C67.2324 0.308472 61.2861 2.61705 56.5989 6.81445C53.5209 9.61272 51.0024 13.1106 49.1136 17.238C47.1548 11.0119 44.0067 3.59644 39.8093 2.40718C38.4102 2.05739 36.9411 1.84752 35.402 1.84752C29.4557 1.84752 23.6493 4.64579 21.8304 8.3535C21.2008 9.68268 21.2008 11.5715 21.7605 14.1599C20.921 13.0406 20.0116 12.2011 18.8223 11.9213C18.3326 11.7814 17.7729 11.7114 17.1433 11.7114C12.4562 11.7114 2.03266 16.1887 0.423655 20.456C-0.345869 22.6247 0.283742 30.6697 1.75283 37.3856C3.29188 44.3812 6.30002 53.4057 12.2464 56.4138C13.1558 56.8335 14.1352 57.1134 15.3244 57.1134C17.4232 57.1134 19.7317 56.4138 21.6905 55.7142C22.6 55.4344 23.7892 55.0147 24.4188 54.9447C24.9785 55.6443 26.0278 57.2533 26.8673 58.5125C29.2458 62.2202 32.254 66.8374 35.6819 69.076C35.8917 69.2159 36.1016 69.2859 36.3814 69.3558C37.2209 69.5657 38.0604 69.7056 38.9698 69.7056C42.3278 69.7056 45.9655 68.0266 48.344 65.3683C50.3028 63.1996 51.2822 60.5413 51.0024 57.8829C51.0024 57.743 51.0024 57.673 50.9324 57.5331C50.093 53.9653 48.414 51.0971 47.0848 48.8585C45.8956 46.8997 44.9162 45.2207 45.0561 44.0315C45.126 43.3319 45.6157 42.5624 46.5252 41.7229C47.8544 47.2495 50.7925 52.2164 55.1299 55.9941C60.2367 60.4713 66.7427 62.9198 73.4585 62.9198C78.8452 62.9198 83.952 61.3807 88.4293 58.3726C88.7091 58.9323 89.0589 59.352 89.3387 59.7018C90.8778 61.4507 93.2563 62.4301 96.1245 62.4301C99.7623 62.4301 103.54 60.891 105.639 58.5125C108.437 55.7142 109.276 52.4962 108.087 49.4881C107.388 47.8791 106.128 46.4799 104.589 45.5005C108.857 43.2619 111.305 36.4761 113.404 30.8096C114.313 28.3611 115.153 26.0526 115.852 24.8633C115.922 24.7234 116.062 24.5135 116.132 24.3036C116.482 23.1843 117.042 21.9251 117.601 20.5959C119.77 15.4191 123.128 7.58398 115.922 2.82692C115.852 2.75696 115.782 2.75696 115.642 2.687C112.564 1.078 109.906 0.308472 107.527 0.308472C103.26 0.308472 100.112 2.75696 98.2932 7.51402C97.3838 9.82259 96.8941 12.481 96.4743 15.2093C94.7954 11.9213 92.6267 9.12303 90.0383 6.81445C85.3512 2.61705 79.4049 0.308472 73.3186 0.308472Z" fill="white"/>
<path d="M113.963 6.18478C112.424 5.20538 110.676 4.78564 108.857 4.57577C107.248 4.3659 105.499 4.29594 103.89 4.92555C100.952 6.04486 99.2726 17.098 98.9228 20.456C98.503 23.8838 98.0133 27.3117 97.4537 30.7396C96.964 33.7477 95.7747 37.3155 97.6635 40.1138C99.2725 42.5623 102.561 43.4018 104.869 41.2331C105.848 40.2537 106.478 39.0645 107.038 37.8752C107.807 36.3362 108.507 34.7271 109.206 33.1881C110.606 30.04 112.005 26.822 113.264 23.604C113.894 21.995 114.523 20.386 115.153 18.777C115.712 17.2379 116.412 15.6989 116.832 14.1598C117.531 10.9418 116.762 7.9337 113.963 6.18478Z" fill="#B1FF00"/>
<path d="M103.47 48.9285C100.042 45.5006 94.7953 48.5088 93.9558 49.3483C92.9065 50.3277 91.9271 51.5169 91.3674 52.8461C90.8777 54.1753 90.8777 55.7843 91.7172 57.0435C92.5567 58.3027 93.9558 58.9323 95.4249 59.1422C98.1532 59.492 101.091 58.1628 103.05 56.3439C104.1 55.3645 105.009 54.0354 105.009 52.4963C105.079 51.0972 104.449 49.838 103.47 48.9285Z" fill="#B1FF00"/>
<path d="M35.4021 6.11499C36.5214 6.11499 37.6407 6.2549 38.6201 6.53473C38.83 6.60469 40.5789 7.2343 43.2373 13.6004C44.8463 17.448 46.3154 22.4849 47.2248 27.0321C48.3441 32.6986 47.9943 34.9372 47.7845 35.3569C47.2248 36.1964 46.1755 36.896 45.1261 37.7355C42.3279 39.8342 38.0605 42.9822 42.3279 49.1384C42.6776 49.768 43.0274 50.3976 43.3772 51.0972C44.7763 53.6156 46.1055 55.9242 46.7351 58.5126C46.875 60.2615 45.9656 61.7306 45.1261 62.6401C43.5171 64.389 41.0686 65.5783 38.9 65.5783C38.4802 65.5783 38.0605 65.5083 37.7107 65.4383C35.0523 63.6195 32.324 59.3521 30.3652 56.274C28.3365 53.1959 27.3571 51.6568 26.2378 51.0972C25.7481 50.8174 25.2584 50.6775 24.6987 50.6775C23.5095 50.6775 22.0404 51.1672 20.3614 51.6569C18.6825 52.2165 16.7237 52.8461 15.3245 52.8461C14.8348 52.8461 14.4151 52.7762 14.1353 52.6362C5.88037 48.5088 3.78166 24.5136 4.41127 21.9952C5.11084 20.3162 13.0859 16.0489 17.1434 16.0489C17.4932 16.0489 17.7031 16.1188 17.773 16.1188C18.8923 16.6085 20.5713 22.0651 21.3408 24.7235C22.9498 30.0402 23.9292 33.2582 26.3777 33.2582C26.6575 33.2582 27.0073 33.1883 27.2871 33.0484C30.6451 31.6492 29.176 26.1226 27.2871 19.127C26.5176 16.1888 25.1884 11.2918 25.6082 10.2424C26.5876 8.28365 30.8549 6.11499 35.4021 6.11499Z" fill="#B1FF00"/>
<path d="M85.0015 7.44405C59.3973 -10.325 34.2828 35.5667 59.5372 55.1546C64.1543 58.8623 70.2406 59.8417 76.047 58.9322C101.651 55.9941 103.4 20.8058 85.0015 7.44405Z" fill="#B1FF00"/>
<path d="M39.1097 4.85567C33.1634 3.17671 25.748 6.1149 24.139 9.47282C22.46 12.9007 30.2252 29.9702 26.6574 31.5092C23.9291 32.6985 22.0403 15.3492 18.1926 14.4398C14.345 13.5303 3.85149 18.4972 2.80214 21.4354C1.8927 23.744 3.92145 49.4181 13.3656 54.1752C16.7235 55.8542 23.5093 51.5868 25.4681 52.5662C27.4269 53.5456 32.0441 63.6893 37.011 66.9773C41.9779 68.3764 49.0436 63.7593 48.4839 58.2327C47.7144 54.595 45.5457 51.4469 43.7968 48.2289C38.9698 41.3032 46.8049 39.904 49.1835 36.2663C51.632 32.6985 44.9161 6.46468 39.1097 4.85567ZM45.5457 34.6573C44.4264 37.6654 39.5294 39.0645 38.69 42.1426C37.9204 45.2207 44.7762 54.455 44.6363 58.5125C44.5663 60.3314 38.9698 64.8086 37.2908 62.7099C35.6119 60.6112 29.9454 50.3975 27.287 49.0684C24.6287 47.7392 19.242 51.307 15.8841 50.9572C13.8553 50.7473 11.8965 48.8585 9.86777 42.7723C8.18881 36.9658 5.32058 24.4436 6.16006 22.2749C6.99954 20.1063 15.1145 15.8389 17.2132 17.5878C19.3119 19.3367 20.6411 30.25 24.139 34.4474C27.0072 36.8959 30.6449 34.1676 30.9248 30.8796C32.114 24.3037 26.5874 13.5303 27.1471 11.7814C27.6368 10.0325 35.2621 7.51403 37.4307 8.2136C39.5994 8.91317 49.3234 26.4723 45.5457 34.6573Z" fill="#3A2A66"/>
<path d="M85.4911 6.5347C58.8375 -12.0038 32.7437 35.7766 59.0474 56.1341C63.8744 60.0516 70.1705 60.9611 76.1868 60.0516C102.77 56.9735 104.589 20.3861 85.4911 6.5347ZM94.7953 33.7479C95.7747 49.4882 78.0057 61.3808 63.8045 54.665C51.0024 47.2495 48.2741 28.641 56.1792 16.6085C72.3392 -5.63778 94.5855 10.872 94.7953 33.7479Z" fill="#3A2A66"/>
<path d="M96.8242 26.1225C96.1946 24.3036 94.3757 23.9538 92.6967 23.604C86.3307 22.135 79.8247 21.0856 73.3187 20.526C69.6809 20.2461 66.0432 20.0363 62.3355 20.1062C58.8377 20.1762 55.1999 20.1062 52.1218 21.8551C51.2823 21.7152 50.3729 22.065 50.163 23.1843C48.8338 29.4105 50.7926 36.616 55.8995 40.6735C58.6977 42.9121 61.9857 43.4718 65.2737 41.8628C67.3024 40.8834 68.8415 39.0645 70.1007 37.1057C71.9895 40.8834 74.5779 44.2413 79.1951 45.0108C84.9315 45.9203 90.1083 42.7722 93.3963 38.1551C95.1452 35.7066 96.3345 32.8383 96.8242 29.9002C96.9641 28.7109 97.2439 27.3817 96.8242 26.1225Z" fill="#3A2A66"/>
<path d="M79.7547 47.6691C79.4049 47.0395 78.7053 46.8996 78.0757 46.9696C77.3762 47.1095 76.7465 47.4593 76.047 47.6691C75.4174 47.879 74.7178 48.0189 74.0882 48.1588C72.759 48.3687 71.2899 48.4387 69.9607 48.2987C68.6316 48.1588 67.3024 47.809 66.0432 47.3893C64.7839 46.9696 63.4548 46.27 62.1256 46.4799C61.7758 46.5498 61.6359 46.8996 61.7058 47.2494C61.9857 48.7884 63.7346 49.6979 65.0638 50.2575C66.6028 50.9571 68.2818 51.3069 69.9607 51.4468C71.5698 51.5867 73.1788 51.5168 74.7878 51.2369C76.3268 50.9571 78.2856 50.5374 79.5448 49.488C79.9646 49.0683 80.0345 48.2288 79.7547 47.6691Z" fill="#3A2A66"/>
<path d="M89.1988 34.8671C88.4992 35.1469 88.1494 35.6366 87.6597 36.1963C87.24 36.616 86.8202 37.1057 86.4005 37.4555C85.561 38.225 84.5117 38.9945 83.3924 39.2044C82.413 39.4143 81.2937 39.4842 80.3842 39.3443C79.8246 39.2744 79.3349 39.0645 78.7752 38.9246C78.4954 38.8546 78.2156 38.7847 77.9357 38.7147C77.7958 38.6448 77.6559 38.6448 77.516 38.6448C77.446 38.6448 77.1662 38.5748 77.3061 38.6448C76.7465 38.3649 76.1169 38.9246 76.3967 39.5542C76.5366 39.904 76.6065 40.1838 76.8164 40.4636C77.0263 40.7435 77.2362 40.9533 77.516 41.1632C78.1456 41.6529 78.9151 41.9327 79.6147 42.0726C81.0838 42.3525 82.5529 42.2825 83.952 41.7228C85.3511 41.1632 86.5404 40.4636 87.7297 39.5542C88.2893 39.0645 88.849 38.5748 89.3387 38.0151C89.8983 37.3855 90.458 36.7559 90.528 35.9164C90.5979 35.2169 89.8284 34.5873 89.1988 34.8671Z" fill="white"/>
<path d="M93.3962 29.7604C93.3962 29.6205 93.3262 29.4106 93.2563 29.2707C93.1863 29.2007 93.1164 29.0608 93.0464 28.9909C92.9065 28.8509 92.7666 28.781 92.6267 28.711C92.5567 28.6411 92.4168 28.6411 92.2769 28.6411C92.137 28.5711 91.9271 28.6411 91.7872 28.6411C91.4374 28.781 91.1576 28.9209 91.0177 29.2707C90.8777 29.5505 90.7378 29.7604 90.528 30.0402C90.458 30.1102 90.458 30.1801 90.388 30.2501C90.3181 30.39 90.2481 30.5999 90.1782 30.7398C90.1082 30.8797 90.1082 31.0196 90.1082 31.2295C90.1082 31.5093 90.1782 31.7891 90.3181 31.999C90.458 32.2089 90.6679 32.4187 90.8777 32.5587C90.9477 32.5587 90.8777 32.5587 91.0177 32.6286C91.2275 32.6986 91.0876 32.6986 91.1576 32.6986C91.3674 32.7685 91.7172 32.7685 91.9271 32.6986C92.2069 32.6286 92.4168 32.4887 92.6267 32.2788C92.8365 32.069 92.9065 31.8591 92.9764 31.6492V31.5793C93.0464 31.4393 93.0464 31.2994 93.1164 31.1595C93.1863 30.8797 93.2563 30.5999 93.3262 30.2501C93.3962 30.1102 93.3962 29.9003 93.3962 29.7604Z" fill="white"/>
<path d="M68.4916 30.8796C68.2817 29.9701 67.1624 29.5504 66.3929 30.0401C65.7633 30.3899 65.5534 30.9495 65.2736 31.5092C65.0637 31.9289 64.8538 32.3487 64.644 32.7684C64.2242 33.5379 63.7345 34.3074 63.1749 35.007C63.1049 35.077 63.035 35.2169 62.965 35.2868C62.8251 35.4268 62.6852 35.5667 62.5453 35.7066C62.2654 35.9864 61.9156 36.2662 61.6358 36.616C61.356 36.8958 61.0762 37.1057 60.7963 37.3156C60.4466 37.5954 60.1667 37.8752 60.0968 38.295C60.0268 38.5048 60.0268 38.7147 60.2367 38.8546C60.7963 39.5542 62.1955 38.9945 62.8251 38.7147C63.8045 38.295 64.644 37.6654 65.3435 36.8958C66.0431 36.1263 66.6727 35.2868 67.2324 34.3774C67.5122 33.9577 67.7221 33.5379 67.9319 33.1182C68.0718 32.8384 68.2118 32.4886 68.3517 32.2087C68.6315 31.719 68.6315 31.2993 68.4916 30.8796Z" fill="white"/>
<path d="M114.453 4.92563C112.844 3.87628 110.885 3.45654 108.997 3.24667C107.248 3.0368 105.429 2.96684 103.68 3.59645C100.532 4.78572 98.7829 16.6084 98.3631 20.1762C97.9434 23.8839 97.4537 27.5217 96.8241 31.1594C96.2644 34.3774 95.0052 38.2251 97.0339 41.1632C98.7829 43.8216 102.281 44.6611 104.729 42.3525C105.779 41.3731 106.408 40.0439 107.038 38.7148C107.807 37.0358 108.577 35.3568 109.346 33.6779C110.885 30.3199 112.285 26.8921 113.684 23.4642C114.383 21.7153 115.013 20.0363 115.712 18.2874C116.342 16.6784 117.112 14.9994 117.531 13.3204C118.301 10.1024 117.461 6.88442 114.453 4.92563ZM113.404 13.6702C112.354 16.4685 111.235 19.2668 110.186 21.9951C108.997 24.9333 107.877 27.8715 106.688 30.8096C105.639 33.398 104.589 36.1264 103.19 38.5748C102.84 39.2045 102.281 40.3238 101.371 40.3238C100.462 40.3937 99.8322 39.4143 99.5524 38.6448C99.1326 37.4555 99.4125 36.0564 99.6223 34.7972C99.9022 33.2581 100.182 31.6491 100.462 30.1101C101.021 26.7521 101.441 23.3243 101.791 19.8964C101.931 18.2874 103.4 7.23421 104.239 6.60459C105.079 5.97498 107.038 6.53464 107.947 6.67455C109.346 6.88442 110.745 7.02433 112.005 7.58399C112.914 8.00373 113.754 8.7033 113.963 9.68269C114.453 11.0119 113.894 12.481 113.404 13.6702Z" fill="#3A2A66"/>
<path d="M104.239 48.2988C100.322 44.3813 94.3056 47.8791 93.3262 48.7186C92.067 49.8379 90.9477 51.1671 90.388 52.7761C89.8284 54.3151 89.8983 56.134 90.8078 57.5331C91.7872 58.9323 93.3962 59.7018 95.0052 59.9117C98.0833 60.3314 101.511 58.7923 103.75 56.7636C105.009 55.6443 105.988 54.1052 105.988 52.3563C106.058 50.8173 105.359 49.3482 104.239 48.2988ZM102.7 52.7761C102.56 53.2658 102.351 53.6156 102.001 54.0353C100.742 55.5743 98.573 56.8336 96.6142 57.0434C94.8653 57.1833 92.6966 56.4838 93.1163 54.3851C93.3262 53.1958 95.8446 48.6486 100.392 49.9078C100.672 49.9778 101.161 50.0478 101.371 50.1877C101.581 50.3276 101.721 50.3975 101.931 50.5375C102.001 50.6074 102.071 50.6774 102.071 50.6774C102.141 50.7473 102.211 50.8173 102.281 50.9572C102.421 51.1671 102.7 51.5868 102.7 51.7967C102.77 52.1465 102.84 52.3563 102.7 52.7761Z" fill="#3A2A66"/>
</svg>
