<svg width="16" height="16" viewBox="0 0 16 16" fill="none" xmlns="http://www.w3.org/2000/svg">
<path fill-rule="evenodd" clip-rule="evenodd" d="M4 0C1.79086 0 0 1.79086 0 4V12C0 14.2091 1.79086 16 4 16H12C14.2091 16 16 14.2091 16 12V4C16 1.79086 14.2091 0 12 0H4ZM12.3107 6.99352C12.3995 6.99352 12.4871 6.98819 12.5736 6.98019V5.20114C11.193 5.1021 10.0886 4.02248 9.94464 2.65448H8.41473L8.39874 10.1189C8.39874 11.0347 7.58997 11.7562 6.67416 11.7562C5.75835 11.7562 5.01626 11.0141 5.01626 10.0983C5.01626 9.18248 5.75835 8.44038 6.67416 8.44038C6.72516 8.44038 6.77446 8.44712 6.82381 8.45387C6.84082 8.45619 6.85783 8.45852 6.87492 8.46057V6.85981C6.85909 6.85881 6.84328 6.85771 6.82746 6.85661C6.77668 6.85307 6.72587 6.84952 6.67416 6.84952C4.88026 6.84952 3.42578 8.304 3.42578 10.0979C3.42578 11.8918 4.88026 13.3463 6.67416 13.3463C8.46807 13.3463 9.92254 11.8918 9.92254 10.0979V5.70286C10.4334 6.47962 11.3115 6.99352 12.3107 6.99352Z" fill="white"/>
</svg>
