<svg width="16" height="16" viewBox="0 0 16 16" fill="none" xmlns="http://www.w3.org/2000/svg">
<path fill-rule="evenodd" clip-rule="evenodd" d="M7.81056 3.64991C5.44221 3.64991 3.52226 5.56986 3.52226 7.93821C3.52226 10.3066 5.44221 12.2265 7.81056 12.2265C10.1789 12.2265 12.0989 10.3066 12.0989 7.93821C12.0989 5.56986 10.1789 3.64991 7.81056 3.64991ZM7.78993 10.7497C6.23908 10.7497 4.9819 9.49247 4.9819 7.94165C4.9819 6.3908 6.23908 5.13359 7.78993 5.13359C9.34075 5.13359 10.598 6.3908 10.598 7.94165C10.598 9.49247 9.34075 10.7497 7.78993 10.7497Z" fill="white"/>
<path d="M11.1523 3.58323C11.1523 3.02242 11.6069 2.56782 12.1677 2.56782C12.7285 2.56782 13.1831 3.02242 13.1831 3.58323C13.1831 4.14401 12.7285 4.59862 12.1677 4.59862C11.6069 4.59862 11.1523 4.14401 11.1523 3.58323Z" fill="white"/>
<path fill-rule="evenodd" clip-rule="evenodd" d="M11.0425 0H4.5305C2.03871 0 0 2.03871 0 4.53046V11.4695C0 13.9613 2.03871 16 4.5305 16H11.0425C13.5343 16 15.573 13.9613 15.573 11.4695V4.53046C15.573 2.03871 13.5343 0 11.0425 0ZM14.3758 11.4695C14.3758 12.3549 14.0277 13.1906 13.3957 13.8227C12.7636 14.4548 11.9279 14.8029 11.0425 14.8029H4.5305C3.64512 14.8029 2.80943 14.4548 2.17734 13.8227C1.54524 13.1906 1.19715 12.3549 1.19715 11.4695V4.53046C1.19715 3.64509 1.54524 2.8094 2.17734 2.17734C2.80943 1.54524 3.64512 1.19715 4.5305 1.19715H11.0425C11.9279 1.19715 12.7636 1.54524 13.3957 2.17734C14.0277 2.8094 14.3758 3.64509 14.3758 4.53046V11.4695Z" fill="white"/>
</svg>
