<svg width="40" height="42" viewBox="0 0 40 42" fill="none" xmlns="http://www.w3.org/2000/svg">
<path d="M19.9461 41.1019C30.962 41.1019 39.8922 31.901 39.8922 20.551C39.8922 9.20098 30.962 0 19.9461 0C8.93017 0 0 9.20098 0 20.551C0 31.901 8.93017 41.1019 19.9461 41.1019Z" fill="white"/>
<path d="M1.23267 20.551C1.23267 31.2883 9.63692 39.9474 20.0582 39.9474V1.27002C9.63692 1.27002 1.23267 9.92913 1.23267 20.551Z" fill="black"/>
<path d="M38.7717 20.551C38.7717 9.81366 30.3674 1.15454 19.9462 1.15454V39.8319C30.3674 39.9474 38.7717 31.2883 38.7717 20.551Z" fill="url(#paint0_linear_211_5199)"/>
<path d="M6.9475 18.1264C6.72339 17.7801 7.05956 17.3182 7.39573 17.3182H13.6709C14.1191 17.3182 14.3433 17.7801 14.1191 18.1264L10.9815 23.5528C10.7574 23.8992 10.3092 23.8992 10.0851 23.5528L6.9475 18.1264Z" fill="white"/>
<path d="M29.3586 24.361C31.3757 24.361 33.0565 22.6292 33.0565 20.551C33.0565 18.4728 31.3757 16.741 29.3586 16.741C27.3416 16.741 25.6608 18.4728 25.6608 20.551C25.6608 22.7446 27.3416 24.361 29.3586 24.361Z" fill="white"/>
<defs>
<linearGradient id="paint0_linear_211_5199" x1="29.3794" y1="4.75719" x2="29.3794" y2="42.2764" gradientUnits="userSpaceOnUse">
<stop stop-color="#B1FF00"/>
<stop offset="1" stop-color="#00AC3B"/>
</linearGradient>
</defs>
</svg>
