<svg width="297" height="57" viewBox="0 0 297 57" fill="none" xmlns="http://www.w3.org/2000/svg">
<path d="M295.477 15.1836C293.577 12.2836 290.377 11.6836 287.377 13.0836C269.777 21.1836 252.777 28.3836 234.977 35.2836C239.977 27.3836 244.777 21.0836 251.477 14.0836C255.777 9.98355 251.377 2.38355 245.677 4.18355C225.377 10.8836 205.677 19.4836 186.877 29.7836C191.277 22.9836 195.577 15.9836 199.477 8.88355C202.477 3.58355 196.677 -2.11645 191.377 0.783553C166.177 12.5836 140.877 24.2836 115.577 35.8836C119.877 28.5836 124.177 21.1836 128.477 13.8836C131.177 9.58355 126.577 3.48355 121.777 5.18355C99.5771 14.3836 77.2771 23.5836 55.0771 32.8836C59.8771 26.8836 64.8771 21.0836 69.9771 15.2836C71.9771 13.0836 72.2771 9.88355 70.4771 7.48355C64.1771 -3.51645 9.47708 39.5836 1.77708 46.3836C-3.62292 51.9836 4.47708 60.0836 10.1771 54.7836C19.6771 46.4836 29.8771 38.8836 40.4771 32.0836C37.5771 35.8836 34.6771 39.6836 31.8771 43.4836C29.0771 47.6836 33.7771 53.8836 38.5771 52.1836C62.1771 42.3836 85.6771 32.6836 109.277 22.8836C104.777 30.4836 100.277 38.1836 95.7771 45.7836C94.4771 47.9836 94.7771 51.1836 96.6771 52.9836C98.7771 54.8836 101.377 55.0836 103.877 53.8836C129.077 42.4836 154.277 30.8836 179.377 19.1836C173.777 27.9836 167.977 36.6836 162.077 45.2836C158.777 50.1836 165.377 56.5836 170.177 53.3836C188.677 41.2836 208.377 30.8836 228.977 22.6836C224.377 29.2836 220.277 36.1836 216.777 43.4836C214.177 47.7836 218.577 53.7836 223.477 52.1836C247.077 43.3836 270.377 33.6836 293.277 23.1836C296.177 21.9836 297.077 17.6836 295.477 15.1836Z" fill="url(#paint0_linear_1_335)"/>
<defs>
<linearGradient id="paint0_linear_1_335" x1="291.072" y1="28.2076" x2="-4.57213" y2="28.2076" gradientUnits="userSpaceOnUse">
<stop stop-color="#B1FF00"/>
<stop offset="1" stop-color="#00AC3B"/>
</linearGradient>
</defs>
</svg>
