<svg width="212" height="161" viewBox="0 0 212 161" fill="none" xmlns="http://www.w3.org/2000/svg">
<path d="M65.2017 37.1614C49.3114 42.3929 34.4799 47.3895 23.2704 51.3073C2.76547 58.399 2.59293 58.9103 2.17907 60.0693C1.76647 60.8869 1.52515 61.5345 5.30286 73.6992C7.19045 80.1228 9.99061 88.9731 13.1633 98.6099C16.0997 107.529 19.1724 116.517 21.5026 123.249C25.6566 135.176 25.9291 135.314 26.7805 135.829C27.7344 136.31 27.8707 136.379 42.9059 131.656C51.1411 129.059 62.0418 125.584 73.5239 121.803C82.8531 118.732 91.7722 115.796 98.7097 113.398C101.61 113.579 104.511 113.761 107.342 114.078C127.372 115.552 148.084 117.028 168.433 115.328L168.535 115.294C170.14 114.993 171.848 114.658 173.386 114.152C180.665 111.755 187.236 106.865 191.628 100.533C196.192 94.0306 197.824 86.5619 196.416 79.5256C199.467 76.0214 200.511 70.5643 198.854 66.2235C197.841 63.4892 195.732 61.5701 193.004 60.8774C193.325 57.0217 191.906 53.0573 189.117 50.453C187.144 48.6026 184.793 47.6724 182.301 47.6973C185.602 41.1563 189.281 33.6952 186.681 26.1426L186.648 26.0401C184.685 21.4592 179.648 17.5496 174.112 19.3722C173.702 19.5072 173.394 19.6085 173.018 19.846C172.915 19.8798 172.813 19.9135 172.744 20.0498C166.277 24.5653 163.757 32.099 161.375 39.3601C161.203 39.8715 161.03 40.3828 160.858 40.8941C160.69 40.0402 160.489 39.0838 160.321 38.2299C158.613 29.5884 156.738 19.7517 150.069 13.993C149.899 13.8217 149.763 13.7529 149.627 13.6842C147.514 12.7889 145.535 12.6451 143.69 13.2526C141.229 14.0627 139.207 16.2055 138.036 19.2047C136.968 21.8288 136.65 24.6606 137.05 27.256C137.904 36.4063 139.781 45.5604 141.66 54.3732C142.465 58.1989 143.338 62.2296 144.04 66.089C141.163 68.7406 138.865 71.7698 137.488 75.1778C134.576 78.0682 131.256 80.411 127.766 82.9238C130.483 77.3704 132.822 72.3959 133.647 70.7607C134.265 69.8756 134.031 68.4753 133.66 67.3476C133.425 66.2887 133.088 64.9222 132.548 63.2819C131.638 60.1726 130.492 56.3457 129.648 53.7827C129.412 53.0651 128.799 52.585 128.049 52.3774C127.674 52.2736 127.367 52.3749 127.059 52.4761C126.649 52.6111 126.375 52.8149 126.135 53.1212C125.312 54.0738 124.49 55.0265 123.531 55.9103C122.757 52.8698 122.118 50.2393 121.411 47.7451C123.055 46.1812 124.391 44.7185 125.455 43.1183C125.833 42.5394 125.869 41.9593 125.769 41.3105C124.824 38.44 123.203 33.8604 121.715 30.0322C118.74 22.3758 118.297 22.067 117.514 21.7569C117.105 21.5506 116.627 21.4806 116.081 21.5468C114.647 21.678 111.23 22.6893 99.8854 26.197C90.66 28.8934 78.3241 32.8411 65.2017 37.1614Z" fill="white"/>
<path d="M117.416 94.2855L139.591 78.4624C139.591 78.4624 142.696 69.5998 147.892 67.4346C146.191 56.7452 139.969 31.6358 140.507 24.6409C140.831 20.1026 141.326 15.3944 147.194 16.3035C150.835 19.0816 158.098 30.44 159.158 48.158C159.827 51.9149 160.165 52.9401 160.165 52.9401C160.165 52.9401 166.646 35.3524 168.812 31.2305C170.875 27.1424 174.311 21.0115 178.708 22.6319C183.068 24.8324 187.345 31.2649 182.261 39.9837C177.109 48.8388 174.323 54.5284 174.323 54.5284C174.323 54.5284 184.315 47.6026 188.654 55.6053C190.366 63.5642 189.063 65.1294 189.063 65.1294C189.063 65.1294 196.344 62.0504 196.38 70.7881C193.693 77.4679 192.969 79.4107 192.969 79.4107C192.969 79.4107 197.444 96.8001 178.291 107.651C168.034 112.392 160.22 111.782 160.22 111.782C160.22 111.782 109.016 113.641 99.9149 110.501C105.143 108.78 112.222 105.086 112.222 105.086L117.416 94.2855Z" fill="#B290FA"/>
<path d="M114.77 25.16C115.962 26.0177 121.637 41.8755 121.637 41.8755C121.637 41.8755 111.469 59.6544 84.0016 57.3343C73.0848 55.9287 68.1078 54.272 66.3195 67.1328C67.1296 69.5933 70.9212 78.0036 87.7266 74.5161C98.3835 72.3711 113.244 68.8423 124.988 58.6122C126.803 57.2196 126.803 57.2196 126.803 57.2196L130.273 69.4855C130.273 69.4855 117.878 98.4512 112.12 105.12C101.663 108.562 31.6752 132.059 28.8747 132.526C26.1357 125.587 6.28068 67.6958 5.97691 66.7731C5.67314 65.8505 4.11676 62.1586 9.38148 59.8571C14.6462 57.5557 114.77 25.16 114.77 25.16Z" fill="#5D13FA"/>
<path d="M126.079 59.1624C127.662 64.6634 128.808 68.8316 128.737 69.3092C128.424 71.117 113.155 102.052 111.546 103.377C110.039 104.668 30.9639 130.589 29.9412 130.243C28.9523 130.001 6.29585 63.6001 7.12104 61.9649C7.94624 60.3297 113.368 26.0764 114.9 26.9353C115.445 27.2104 117.777 33.6015 120.308 41.2904C120.68 42.4181 121.017 43.4433 121.388 44.571C122.142 43.7546 122.862 42.8358 123.549 41.8144C123.144 40.5842 122.739 39.3539 122.368 38.2262C119.599 30.161 117.097 23.5986 116.347 23.391C114.438 22.7696 4.94829 58.8168 4.01931 60.8271C3.12409 62.9399 26.6868 133.474 27.777 134.024C28.8671 134.574 111.907 107.235 113.516 105.91C115.125 104.585 131.325 70.957 131.979 69.4918C132.152 68.9805 130.738 63.6508 128.613 56.8508C128.343 56.0307 128.073 55.2105 127.769 54.2879C127.049 55.2067 126.193 56.0569 125.439 56.8732C125.572 57.6246 125.842 58.4447 126.079 59.1624Z" fill="#3A2A66"/>
<path d="M125.302 56.8045C126.159 55.9544 126.913 55.1381 127.633 54.2192C127.903 55.0393 128.207 55.962 128.477 56.7821C127.723 57.5985 126.866 58.4486 125.976 59.1962C121.148 63.513 115.129 66.6308 109.113 69.066C106.412 70.1824 103.678 71.1962 100.944 72.21C99.6449 72.7513 98.2434 73.3264 96.9107 73.7651C95.578 74.2039 94.1089 74.5739 92.7425 74.9102C87.3453 76.1189 81.5055 77.0189 76.0484 75.9748C71.2051 75.0694 66.0631 71.8762 65.0243 66.6503C64.0856 62.0733 66.6637 57.1338 71.0733 55.3411C73.5687 54.2923 76.3667 54.5074 78.8908 54.9263C81.5175 55.3115 83.9729 55.8667 86.6008 55.9105C91.7542 56.032 96.9451 55.232 101.832 53.5094C106.719 51.7868 111.303 49.1415 115.445 45.8461C117.156 44.4872 118.903 42.8895 120.241 41.0855C120.961 40.1666 121.647 39.1452 122.334 38.1238C122.705 39.2515 123.11 40.4817 123.515 41.7119C122.795 42.6308 122.075 43.5497 121.355 44.4686C119.778 46.2376 117.895 47.7665 116.081 49.1592C111.974 52.2158 107.459 54.7248 102.641 56.3112C97.9589 57.9663 92.9043 58.835 87.8872 58.7823C85.3618 58.7047 82.7689 58.4221 80.3472 57.9694C77.9593 57.6193 75.5039 57.0641 73.0785 57.6353C69.0815 58.6104 66.5735 63.0723 67.9586 66.9342C69.6137 71.6163 75.0345 73.2405 79.539 73.462C85.0675 73.6872 90.4634 72.8198 95.7931 71.406C97.1596 71.0697 98.5598 70.836 99.8926 70.3972C101.123 69.9921 102.489 69.6559 103.686 69.1483C106.317 68.1683 108.915 67.0857 111.377 65.9343C116.403 63.5979 121.329 60.6125 125.302 56.8045Z" fill="#3A2A66"/>
<path d="M122.725 61.4027C122.558 60.5488 122.424 59.7974 122.154 58.9772C121.684 56.8594 121.078 54.6727 120.608 52.5549C120.035 50.4707 119.429 48.2841 118.823 46.0975C118.722 45.7899 118.62 45.4823 118.519 45.1748C117.698 45.7861 117.013 46.4662 116.124 46.8725L116.157 46.975C116.764 49.1616 117.336 51.2458 117.942 53.4324C118.515 55.5165 119.019 57.7369 119.591 59.821C119.793 60.7775 120.028 61.8364 120.331 62.7591C120.981 62.3178 121.837 61.809 122.725 61.4027Z" fill="#3A2A66"/>
<path d="M107.955 68.3108C108.365 68.1758 108.707 68.1771 108.979 68.3146C109.082 68.2808 109.184 68.2471 109.287 68.2133C109.119 67.3594 109.02 66.3693 108.853 65.5154C108.486 63.3637 108.084 61.1096 107.614 58.9917C107.178 56.9764 106.742 54.961 106.237 53.0819C105.519 53.3182 104.835 53.657 104.118 53.8932C103.913 53.9607 103.81 53.9945 103.571 53.9595C103.974 55.8723 104.41 57.8877 104.813 59.8005C105.283 61.9184 105.684 64.1725 106.154 66.2904C106.321 67.1443 106.489 67.9982 106.656 68.8521C107.033 68.6146 107.443 68.4796 107.955 68.3108Z" fill="#3A2A66"/>
<path d="M91.5172 73.9499C92.3374 73.6799 93.1913 73.5124 94.1477 73.3112C94.0139 72.5598 93.9827 71.7747 93.8152 70.9208C93.5503 68.7354 93.1828 66.5838 92.7815 64.3296C92.414 62.178 92.0128 59.9239 91.5428 57.806C91.4428 57.1571 91.274 56.6445 91.1741 55.9957C90.4902 56.3344 89.67 56.6045 88.9187 56.7382C88.8161 56.772 88.7136 56.8057 88.4748 56.7707C88.5411 57.317 88.7098 57.8296 88.7761 58.376C89.1436 60.5276 89.5448 62.7817 89.9123 64.9334C90.2798 67.085 90.681 69.3391 90.946 71.5245C91.0797 72.2759 91.1447 73.1636 91.2784 73.9149C91.551 74.0525 91.5172 73.9499 91.5172 73.9499Z" fill="#3A2A66"/>
<path d="M75.6478 55.0849C75.7115 56.3139 75.844 57.4066 75.9765 58.4993C76.139 60.7184 76.4039 62.9038 76.5664 65.1229C76.7288 67.342 76.8913 69.5611 77.0537 71.7803C77.0837 72.9067 77.1136 74.0332 77.2461 75.1258C77.2799 75.2284 77.3136 75.3309 77.2111 75.3646C77.6887 75.4347 78.1663 75.5047 78.6101 75.4722C78.8489 75.5072 79.0877 75.5422 79.2239 75.611C79.2239 75.611 79.2239 75.611 79.3265 75.5772C79.4977 75.4072 79.7028 75.3397 79.9416 75.3747C79.8741 75.1697 79.9091 74.9309 79.8753 74.8284C79.8454 73.7019 79.8154 72.5755 79.7854 71.4491C79.7255 69.1962 79.5631 66.9771 79.4006 64.7579C79.2382 62.5388 79.0757 60.3197 78.8107 58.1343C78.677 57.3829 78.6795 56.7003 78.5458 55.9489C77.4543 55.7401 76.568 55.4638 75.6478 55.0849Z" fill="#3A2A66"/>
<path d="M21.1026 83.7241C21.2439 82.4276 50.9392 72.8783 53.7022 73.3322C56.15 75.9352 61.4753 94.181 60.8564 95.4074C57.5032 97.6477 33.2764 105.169 28.8719 105.597C25.4465 99.6794 20.8849 87.2046 21.1026 83.7241Z" fill="#B1FF00"/>
<path d="M54.5637 71.1169C52.8584 70.7693 20.7714 80.9923 19.8112 82.2175C18.851 83.4427 26.6152 106.681 28.0454 107.573C29.3731 108.5 62.3178 97.0853 62.8679 95.9951C63.4181 94.9049 56.269 71.4645 54.5637 71.1169ZM45.6966 87.6718C44.4052 86.1653 41.7523 83.6298 40.1858 82.6683C40.0846 82.3608 40.0521 81.9169 39.9508 81.6094C39.7496 80.653 39.4458 79.7303 39.1421 78.8076C45.8058 76.6137 52.1269 74.7599 52.5694 75.0687C53.012 75.3775 54.7372 79.582 56.1885 83.9903C55.2658 84.2941 54.3432 84.5979 53.523 84.8679C51.3701 85.5767 49.251 86.388 47.2344 87.1656C46.7555 87.4368 46.2092 87.5031 45.6966 87.6718ZM42.5971 95.1692C42.0507 95.2355 38.0001 92.2511 37.8326 91.3972C37.6651 90.5433 39.3244 84.8836 40.1445 84.6136C40.9647 84.3436 44.6014 88.4869 44.7689 89.3408C44.8001 90.126 43.1097 95.0005 42.5971 95.1692ZM22.9754 84.9256C23.2504 84.3805 30.0179 81.8116 36.9892 79.5164C37.2592 80.3366 37.5292 81.1567 37.9355 82.0456C38.1043 82.5582 38.3418 82.9345 38.5105 83.4471C37.5478 85.3549 36.4075 89.1393 36.1274 91.0496C36.0249 91.0833 35.9223 91.1171 35.9223 91.1171C34.6921 91.5221 33.5994 91.6546 32.5405 91.8896C30.3539 92.4959 28.0984 93.2384 25.8768 94.0835C25.7743 94.1172 25.5692 94.1847 25.4667 94.2185C23.9129 89.8439 22.6315 85.6069 22.9754 84.9256ZM29.6621 104.2C29.1858 103.789 27.6631 100.2 26.2443 96.2351C26.3468 96.2013 26.5518 96.1338 26.6544 96.1001C28.8072 95.3913 30.9939 94.785 33.0105 94.0075C34.1044 93.5337 35.0959 93.0936 36.0873 92.6536C36.1898 92.6198 36.2923 92.5861 36.3949 92.5523C37.38 93.8188 40.6817 96.2544 42.3169 97.0796C42.4182 97.3871 42.5532 97.7972 42.6545 98.1047C42.9245 98.9249 43.2283 99.8476 43.3958 100.701C36.7321 102.895 30.2409 104.578 29.6621 104.2ZM45.4111 100.265C45.1411 99.4451 44.8711 98.6249 44.5323 97.941C44.3635 97.4284 44.1948 96.9158 43.9923 96.3007C44.8862 94.5292 46.1616 91.1549 46.4404 89.5859C46.8505 89.4509 47.158 89.3497 47.5681 89.2147C49.8235 88.4721 52.0102 87.8658 54.2993 87.2258C55.222 86.9221 56.1446 86.6183 56.9648 86.3483C58.3149 90.449 59.3587 94.3097 58.9123 95.0248C58.5685 95.7061 52.1773 98.0376 45.4111 100.265Z" fill="#3A2A66"/>
<path d="M171.618 65.9864C170.023 63.5572 167.847 61.433 164.983 60.6715C162.46 59.9113 159.659 60.3788 157.062 61.1201C154.363 61.8951 151.697 63.114 149.267 64.7092C144.444 67.6607 140.537 72.0151 138.776 77.3672C136.878 82.9918 137.399 89.7517 141.65 94.0338C142.33 94.719 143.153 93.7663 142.814 93.0825C140.712 89.1155 139.945 84.3684 141.019 80.0377C142.128 75.4682 145.18 71.6227 148.911 68.8036C150.827 67.3772 152.914 66.122 155.238 65.2432C157.324 64.3294 159.51 63.7231 161.763 63.6632C164.119 63.5695 166.026 64.5322 167.522 66.3126C168.779 67.7166 170.376 69.8045 170.129 71.8174C170.057 72.9775 169.167 73.7251 168.345 74.3365C167.045 75.2191 165.608 76.0329 164.274 76.813C161.333 78.5769 158.527 80.4096 155.585 82.1736C154.73 82.6824 154.759 84.1501 155.713 84.6315C158.234 85.733 159.898 88.026 160.537 90.6564C160.671 91.4078 161.727 91.8554 162.445 91.6192C163.265 91.3491 163.575 90.5653 163.408 89.7114C162.769 87.0809 161.275 84.9592 159.165 83.3814C161.456 82.0588 163.748 80.7361 166.04 79.4135C168.503 77.9208 171.921 76.5682 172.99 73.6027C174.16 70.9448 173.146 68.2106 171.618 65.9864Z" fill="#3A2A66"/>
<path d="M184.836 26.7503C183.111 22.5458 178.48 19.5251 174.035 21.5565C171.676 22.6742 170.03 24.9207 168.827 27.1348C167.487 29.6214 166.521 32.2118 165.42 34.7335C163.663 39.0616 162.009 43.356 160.525 47.8217C159.419 42.3908 158.176 36.8911 156.728 31.4589C155.853 28.1108 154.808 24.5914 153.523 21.3783C152.542 19.0879 151.152 16.5912 148.835 15.4221C146.076 13.9443 142.829 15.1269 141.011 17.5435C139.056 20.2326 138.941 23.6794 139.099 26.9225C139.257 30.5068 139.824 33.9562 140.528 37.4743C141.163 41.1287 141.934 44.8518 142.672 48.4725C143.476 52.6394 144.279 56.8064 145.152 60.8371C145.62 63.2963 146.123 65.858 146.694 68.2834C147.516 67.6721 148.303 66.9583 149.158 66.4495C148.958 65.1517 148.622 63.7853 148.422 62.4875C147.821 58.9357 147.151 55.5201 146.447 52.0019C145.777 48.5863 145.107 45.1707 144.437 41.7551C143.801 38.4421 143.062 35.1627 142.631 31.7822C142.199 28.7429 141.801 25.4648 142.29 22.4631C142.605 20.314 144.051 17.111 146.847 17.6674C148.791 18.0501 150.011 20.3755 150.654 21.982C151.838 24.8876 152.782 28.0994 153.658 31.1062C155.814 38.6913 157.322 46.3764 158.829 54.0615C158.929 54.7103 159.747 55.1229 160.327 55.1592C161.01 55.1617 161.523 54.6517 161.731 53.9016C163.354 48.822 165.147 43.9137 167.179 39.0405C168.178 36.5526 169.21 34.1672 170.243 31.7819C171.138 29.6691 172.102 27.42 173.577 25.6847C174.742 24.392 176.35 23.4082 178.225 23.9271C179.828 24.3085 181.222 25.7813 181.933 27.2515C183.932 31.2523 181.831 36.2618 180.247 40.0786C178.18 45.1907 175.5 50.1639 172.377 54.8283C171.073 56.7349 173.694 58.4852 174.998 56.5787C178.121 51.9143 180.733 47.0773 182.903 41.9315C184.694 37.3646 187.036 31.7075 184.836 26.7503Z" fill="#3A2A66"/>
<path d="M187.509 51.437C182.949 47.9388 176.352 50.3377 173.23 54.6608C172.51 55.5797 173.563 57.0512 174.692 56.3386C177.464 54.4034 181.023 51.7543 184.635 53.406C187.872 54.9539 187.821 59.2884 187.366 62.3926C186.705 65.9057 185.258 69.45 182.383 71.7603C180.945 72.9154 179.098 73.8642 177.254 74.1305C175.923 74.2279 174.182 74.1191 173.539 72.8539C172.726 71.076 174.099 69.0333 175.128 67.6718C175.848 66.7529 176.568 65.8341 177.322 65.0177C178.145 64.0651 179.137 63.2837 179.756 62.0573C180.478 60.7971 178.844 59.6306 177.817 60.3094C176.655 60.9195 175.866 61.9746 175.043 62.9273C174.118 63.9136 173.329 64.9688 172.437 66.0577C172.06 66.6365 171.648 67.1128 171.373 67.6579C171.407 67.7604 171.475 67.9655 171.542 68.1705C171.642 68.8194 171.64 69.502 171.603 70.0821C171.602 70.4234 171.567 70.6622 171.566 71.0035C171.493 72.1637 171.421 73.3239 170.871 74.414C172.905 78.176 178.709 77.5148 182.026 75.8547C186.506 73.5845 189.253 69.1576 190.43 64.4518C191.402 60.1549 191.355 54.4889 187.509 51.437Z" fill="#3A2A66"/>
<path d="M190.369 62.5402C188.389 62.7377 188.583 65.742 190.461 65.5782C193.226 65.3496 194.615 68.1876 194.504 70.6105C194.426 73.1359 193.052 75.52 191.373 77.3228C189.762 78.9892 187.54 80.1756 185.183 80.6106C184.534 80.7106 183.783 80.8443 183.169 80.7055C182.486 80.703 182.112 80.2579 181.705 79.7103C181.161 79.0939 180.822 78.4101 180.586 77.6924C180.35 76.9748 179.977 76.1884 179.741 75.4708C179.573 74.6169 178.106 74.6456 177.966 75.6007C177.894 76.4196 177.789 77.136 177.923 77.8874C178.09 78.7413 178.327 79.4589 178.699 80.2453C179.377 81.6131 180.396 82.9821 181.93 83.4997C184.486 84.3624 187.767 83.2824 190.092 82.0622C194.948 79.5545 198.69 73.6636 197.414 68.0614C196.607 64.9183 193.715 62.3478 190.369 62.5402Z" fill="#3A2A66"/>
<path d="M192.324 78.4868C192.05 78.6905 191.64 78.8256 191.366 79.0293C191.501 79.4394 191.568 79.9857 191.703 80.3958C192.104 82.65 192.164 84.9028 191.746 87.0857C191.081 91.6227 189.018 95.7108 186.206 99.25C183.189 102.857 179.356 105.71 175.286 107.845C171.114 110.014 166.332 111.02 161.627 109.842C159.512 109.288 157.366 108.291 155.664 106.919C154.746 106.199 153.827 105.479 153.079 104.589C152.705 104.143 149.747 101.027 148.755 101.808C147.762 102.589 150.105 105.909 150.479 106.354C151.226 107.244 152.11 108.203 153.029 108.923C154.867 110.363 156.842 111.531 159.057 112.393C164.068 114.152 169.394 113.762 174.282 111.698C183.785 107.774 192.451 99.5803 194.4 89.2799C195.131 85.6306 195.044 81.2273 193.727 77.5704C193.248 77.8417 192.803 78.2155 192.324 78.4868Z" fill="#3A2A66"/>
<path d="M168.858 111.098C164.183 110.705 159.506 110.995 154.83 110.943C150.155 110.892 145.479 110.841 140.803 110.789C131.52 110.55 122.34 110.277 113.058 109.697C108.52 109.373 103.879 109.083 99.4099 108.622C98.4172 109.404 97.2207 109.911 96.0242 110.419C95.9217 110.452 95.9217 110.452 95.8192 110.486C96.023 110.76 96.363 111.103 96.7043 111.104C115.402 112.675 134.102 113.904 152.84 113.871C155.468 113.915 158.165 113.823 160.793 113.867C163.387 113.808 165.47 113.577 168.099 113.279C168.748 113.179 169.84 113.047 169.843 112.364C169.879 111.784 169.438 111.134 168.858 111.098Z" fill="#3A2A66"/>
<path d="M139.828 79.18C140.244 77.3384 140.763 75.4632 141.691 73.7942C141.006 74.4742 140.354 75.2569 139.669 75.9369C138.813 76.7871 137.854 77.6709 136.997 78.521C135.046 80.1862 132.958 81.7827 130.939 83.2429C126.695 86.2307 122.452 89.2186 118.48 92.6853C117.59 93.4329 118.915 95.0419 119.771 94.1918C123.777 90.8276 128.327 88.0798 132.57 85.092C134.692 83.5981 136.78 82.0016 138.698 80.2339C139.109 79.7576 139.485 79.52 139.828 79.18Z" fill="#3A2A66"/>
<path d="M95.6202 44.3051C93.7749 44.9126 94.7199 47.7831 96.5653 47.1756C98.4106 46.5681 97.4655 43.6976 95.6202 44.3051Z" fill="#3A2A66"/>
<path d="M104.038 38.4657C102.09 39.107 103.069 42.08 105.017 41.4387C106.999 40.9 105.986 37.8244 104.038 38.4657Z" fill="#3A2A66"/>
</svg>
