<svg width="100" height="100" viewBox="0 0 100 100" fill="none" xmlns="http://www.w3.org/2000/svg">
<path fill-rule="evenodd" clip-rule="evenodd" d="M50 0C77.668 0 100 22.332 100 50C100 77.668 77.668 100 50 100C22.332 100 0 77.668 0 50C0 22.332 22.332 0 50 0ZM50 3.7227C75.566 3.7227 96.277 24.4337 96.277 49.9997C96.277 75.5657 75.566 96.2767 50 96.2767C24.434 96.2767 3.723 75.5657 3.723 49.9997C3.723 24.4337 24.434 3.7227 50 3.7227V3.7227Z" fill="#B1FF00"/>
<path d="M36.2981 22.8638L36.3114 22.8722L36.3248 22.8803L78.2333 48.1525L78.2332 48.1525L78.2412 48.1572C79.887 49.1359 79.9597 51.7853 78.2185 52.8976L36.3327 78.1562C36.3315 78.1569 36.3303 78.1576 36.3291 78.1584C34.7271 79.1072 32.5 77.9492 32.5 75.7928V25.2484C32.5 23.0181 34.7683 21.8972 36.2981 22.8638Z" stroke="#B1FF00" stroke-width="3"/>
</svg>
