<svg width="100" height="100" viewBox="0 0 100 100" fill="none" xmlns="http://www.w3.org/2000/svg">
<path fill-rule="evenodd" clip-rule="evenodd" d="M50 0C77.668 0 100 22.332 100 50C100 77.668 77.668 100 50 100C22.332 100 0 77.668 0 50C0 22.332 22.332 0 50 0ZM50 3.7227C75.566 3.7227 96.277 24.4337 96.277 49.9997C96.277 75.5657 75.566 96.2767 50 96.2767C24.434 96.2767 3.723 75.5657 3.723 49.9997C3.723 24.4337 24.434 3.7227 50 3.7227V3.7227Z" fill="#B1FF00"/>
<path d="M43.852 22.168V77.832H27.672V22.168H43.852V22.168ZM40.9379 25.0821H30.4179V74.9221H40.9379V25.0821Z" fill="#B1FF00"/>
<path d="M72.332 22.168V77.832H56.152V22.168H72.332V22.168ZM69.4179 25.0821H59.0629V74.9221H69.4179V25.0821Z" fill="#B1FF00"/>
</svg>
