<svg width="100" height="100" viewBox="0 0 100 100" fill="none" xmlns="http://www.w3.org/2000/svg">
<path d="M21.875 65.625H9.375C7.6484 65.625 6.25 64.2266 6.25 62.5V37.5C6.25 35.7734 7.6484 34.375 9.375 34.375H21.875C22.7031 34.375 23.5 34.7031 24.0859 35.2891C24.6718 35.875 25 36.6719 25 37.5V62.5C25 63.3281 24.6718 64.125 24.0859 64.7109C23.5 65.2968 22.7031 65.6249 21.875 65.6249V65.625ZM12.5 59.375H18.75V40.625H12.5V59.375Z" fill="#B1FF00"/>
<path d="M53.1249 93.7502C52.3515 93.7463 51.6054 93.4572 51.0311 92.9377L19.7811 64.8127C19.1093 64.2736 18.6913 63.4807 18.6209 62.6252C18.5545 61.7658 18.8436 60.9182 19.4217 60.2775C19.9998 59.6407 20.8162 59.2697 21.6756 59.2502C22.535 59.2345 23.367 59.5744 23.9686 60.1877L49.9996 83.5937V16.4057L23.9686 39.8117C23.3671 40.4249 22.535 40.7648 21.6756 40.7492C20.8162 40.7296 19.9998 40.3585 19.4217 39.7219C18.8436 39.0812 18.5545 38.2336 18.6209 37.3742C18.6912 36.5187 19.1092 35.7258 19.7811 35.1867L51.0311 7.06166C51.9452 6.23354 53.2616 6.02646 54.3905 6.5226C55.5194 7.0226 56.246 8.1398 56.2499 9.3742V90.6242C56.246 91.8508 55.5273 92.964 54.4061 93.468C54.0038 93.6516 53.5663 93.7453 53.1249 93.7493V93.7502Z" fill="#B1FF00"/>
<path fill-rule="evenodd" clip-rule="evenodd" d="M72.922 49.8518L61 37.9258L64.9258 34L76.8518 45.922L88.7778 34L92.7036 37.9258L80.7816 49.8518L92.7036 61.7778L88.7778 65.7036L76.8518 53.7816L64.9258 65.7036L61 61.7778L72.922 49.8518Z" fill="#B1FF00"/>
</svg>
