<svg width="100" height="100" viewBox="0 0 100 100" fill="none" xmlns="http://www.w3.org/2000/svg">
<path d="M21.875 65.625H9.375C7.6484 65.625 6.25 64.2266 6.25 62.5V37.5C6.25 35.7734 7.6484 34.375 9.375 34.375H21.875C22.7031 34.375 23.5 34.7031 24.0859 35.2891C24.6718 35.875 25 36.6719 25 37.5V62.5C25 63.3281 24.6718 64.125 24.0859 64.7109C23.5 65.2968 22.7031 65.6249 21.875 65.6249V65.625ZM12.5 59.375H18.75V40.625H12.5V59.375Z" fill="#B1FF00"/>
<path d="M53.1249 93.7502C52.3515 93.7463 51.6054 93.4572 51.0311 92.9377L19.7811 64.8127C19.1093 64.2736 18.6913 63.4807 18.6209 62.6252C18.5545 61.7658 18.8436 60.9182 19.4217 60.2775C19.9998 59.6407 20.8162 59.2697 21.6756 59.2502C22.535 59.2345 23.367 59.5744 23.9686 60.1877L49.9996 83.5937V16.4057L23.9686 39.8117C23.3671 40.4249 22.535 40.7648 21.6756 40.7492C20.8162 40.7296 19.9998 40.3585 19.4217 39.7219C18.8436 39.0812 18.5545 38.2336 18.6209 37.3742C18.6912 36.5187 19.1092 35.7258 19.7811 35.1867L51.0311 7.06166C51.9452 6.23354 53.2616 6.02646 54.3905 6.5226C55.5194 7.0226 56.246 8.1398 56.2499 9.3742V90.6242C56.246 91.8508 55.5273 92.964 54.4061 93.468C54.0038 93.6516 53.5663 93.7453 53.1249 93.7493V93.7502Z" fill="#B1FF00"/>
<path d="M78.1249 76.5004C77.0858 76.5004 76.1132 75.9847 75.5311 75.1254C75.0663 74.4379 74.8944 73.5942 75.0507 72.7777C75.2108 71.9652 75.6874 71.2465 76.3749 70.7816C82.8437 66.4925 86.9529 59.4416 87.4959 51.6996C88.0428 43.9574 84.9607 36.4026 79.1561 31.2506C77.8709 30.0944 77.7655 28.1139 78.9217 26.8287C80.0779 25.5435 82.0584 25.4381 83.3436 26.5943C90.5467 33.0357 94.3666 42.4463 93.6876 52.0863C93.0079 61.723 87.9103 70.5083 79.8756 75.8753C79.3678 76.2581 78.7584 76.4729 78.1256 76.5003L78.1249 76.5004Z" fill="#B1FF00"/>
<path d="M71.8749 67.0942C70.9804 67.102 70.1288 66.727 69.5311 66.063C68.3866 64.7778 68.4959 62.8052 69.7811 61.6568C73.1014 58.692 74.9999 54.4537 74.9999 50.0008C74.9999 45.5479 73.1015 41.3094 69.7811 38.3448C68.4959 37.1886 68.3905 35.2081 69.5467 33.9229C70.7029 32.6377 72.6834 32.5323 73.9686 33.6885C78.6131 37.8369 81.2694 43.7705 81.2694 50.0005C81.2694 56.2305 78.6132 62.1645 73.9686 66.3125C73.3905 66.8203 72.6444 67.1016 71.8748 67.0938L71.8749 67.0942Z" fill="#B1FF00"/>
<path d="M62.4999 60.125C61.6015 60.125 60.7499 59.7383 60.1561 59.0625C59.0116 57.7773 59.1209 55.8047 60.4061 54.6563C61.7499 53.4688 62.5233 51.7618 62.5233 49.9688C62.5233 48.1758 61.7499 46.4688 60.4061 45.2813C59.1209 44.1251 59.0155 42.1446 60.1717 40.8594C61.3279 39.5742 63.3084 39.4688 64.5936 40.625C67.285 42.9961 68.8241 46.4141 68.8241 50C68.8241 53.5859 67.285 57.0039 64.5936 59.375C64.0116 59.875 63.2655 60.1407 62.4998 60.125L62.4999 60.125Z" fill="#B1FF00"/>
</svg>
